<?xml version="1.0" standalone="no"?>
<svg version="1.1" id="Layer_1" xmlns="http://www.w3.org/2000/svg" xmlns:xlink="http://www.w3.org/1999/xlink" x="0px" y="0px" width="595.28px" height="595.28px" viewBox="0 0 595.28 595.28" enable-background="new 0 0 595.28 595.28" xml:space="preserve">
<path id="color_x5F_6" fill="#ED1C24" d="M429.345,260.387h4.414c-2.243,1.77-3.042,4.738-2.128,7.333h-2.286v0.131
	c0,1.734-1.407,3.141-3.142,3.141h-5.27c-1.735,0-3.141-1.407-3.141-3.141v-8.262c0-1.735,1.406-3.141,3.141-3.141h5.27
	c1.735,0,3.142,1.406,3.142,3.141V260.387z M455.537,256.448h-5.27c-1.735,0-3.141,1.406-3.141,3.141v0.798h-5.218
	c0.474,0.375,0.907,0.819,1.275,1.336c1.291,1.81,1.528,4.048,0.845,5.997h3.098v0.131c0,1.734,1.406,3.141,3.141,3.141h5.27
	c1.735,0,3.142-1.407,3.142-3.141v-8.262C458.679,257.854,457.272,256.448,455.537,256.448z M388.125,215.696
	c-0.05-0.506-0.51-1.243-1.889-2.31c-6.522-5.045-18.952-1.969-21.333,2c-2,3.333-1.475,6.553-1.475,6.553h0.002h13.916
	c0.155,0.459,0.386,0.884,0.72,1.25c2.55,2.784,2.609,4.69,2.609,5.833c0,0.952,0.213,2.243,0.286,2.651
	c0.014,0.082,0.025,0.141,0.025,0.141s0.014-0.059,0.035-0.141c0.209-0.837,1.433-5.474,2.681-4.754
	c2.27,1.308,2.058,9.708,2.058,9.708c0.779-1.581,2.036-1.493,3.119-5.056c2.27-7.47,0.378-13.901,0.378-13.901
	C388.903,216.894,388.523,216.25,388.125,215.696z"></path>
<path id="color_x5F_5" fill="#cc8450" d="M402.146,392.767c3.068,3.799,5.293,9.587,5.16,18.433
	c-0.051,3.384-0.398,6.73-0.893,9.862c-1.407,8.909-4.016,16.057-4.481,17.29l-0.105,0.095l-6.876-22.146l-9.241-29.759
	l-1.217-0.792c0,0-4.334-8.15-7.776-19.694h22.639c0-0.002,0-0.004,0-0.007C400.161,376.451,401.396,386.87,402.146,392.767z
	 M353.323,366.054h0.006c-0.01-0.13-0.021-0.258-0.031-0.389C353.307,365.792,353.313,365.928,353.323,366.054z M373.204,366.042
	c-0.001,0.004-0.001,0.008-0.002,0.012h-19.874c0.845,10.744,2.823,18.5,2.823,18.5l0.431,0.468l4.853,26.036l4.891,26.244
	l0.165-0.15l0.193,1.076c0.84-2.155,5.735-15.149,6.469-27.327c0.019-0.306,0.017-0.585,0.029-0.884
	c0.322-7.395-0.971-12.731-2.98-16.563C370.76,387.026,371.791,376.271,373.204,366.042z M353.117,362.919
	c0.05,0.937,0.112,1.848,0.18,2.747C353.229,364.767,353.167,363.855,353.117,362.919z M340.867,268.363
	c-0.103-0.295-0.229-0.562-0.375-0.805c-2.221,4.269-3.968,7.915-3.968,7.915s-1.215,3.876-2.175,8.488
	c-1.342-0.37-3.038-0.706-4.825-1.001c-5.328-0.879-11.466-1.398-11.466-1.398s-3.402-0.64-6.768-0.843
	c0.008-0.128,0.02-0.254,0.02-0.384c0-3.458-2.67-6.286-6.062-6.549c-0.17-0.013-0.34-0.026-0.513-0.026
	c-0.058,0-0.114,0.007-0.171,0.009c-3.551,0.092-6.403,2.993-6.403,6.566c0,2.24,1.123,4.216,2.833,5.403
	c1.063,0.737,2.351,1.171,3.741,1.171c0.934,0,1.821-0.197,2.625-0.548c0.616,0.584,1.314,1.166,2.087,1.742
	c5.142,3.832,13.395,7.366,20.194,9.268c1.851,0.518,3.588,0.912,5.13,1.16c0.347,0.293,0.752,0.498,1.241,0.571
	c4.624,0.693,10.123-3.305,15.122-9.192l-1.768-10.01C345.6,276.882,342.559,273.214,340.867,268.363z M363.205,231.382v-7.149
	c0-0.785,0.081-1.551,0.226-2.293h13.916c0.155,0.459,0.386,0.884,0.72,1.25c2.55,2.784,2.609,4.69,2.609,5.833
	c0,0.952,0.213,2.243,0.286,2.651c0.014,0.082,0.025,0.141,0.025,0.141s0.014-0.059,0.035-0.141
	c0.209-0.837,1.433-5.474,2.681-4.754c2.27,1.308,2.058,9.708,2.058,9.708c-0.138,0.28-0.289,0.552-0.448,0.819v13.517h-0.29
	c-1.095,2.358-3.178,4.215-6.238,4.707c-0.519,0.083-1.057,0.139-1.633,0.139c-3.021,0-5.256-1.213-6.718-3.006
	c-0.459-0.563-0.847-1.18-1.153-1.839h-0.414v-7.842C363.849,242.255,363.205,237.34,363.205,231.382z M374.349,227.726
	c-0.063,0.671,0.219,1.249,0.627,1.293c0.412,0.044,0.793-0.464,0.86-1.13c0.066-0.669-0.217-1.247-0.626-1.292
	C374.797,226.552,374.414,227.059,374.349,227.726z M365.794,227.726c-0.063,0.671,0.219,1.249,0.626,1.293
	c0.413,0.044,0.793-0.464,0.86-1.13c0.066-0.669-0.217-1.247-0.627-1.292C366.242,226.552,365.859,227.059,365.794,227.726z
	 M443.184,261.723c-0.369-0.517-0.801-0.96-1.275-1.336c-2.237-1.772-5.456-1.941-7.896-0.201c-0.089,0.063-0.169,0.134-0.254,0.201
	c-2.243,1.77-3.042,4.738-2.128,7.333c0.169,0.48,0.399,0.945,0.687,1.389c-2.201,1.777-4.118,3.84-4.118,3.84
	s-2.745,2.316-5.518,4.975c-1.361-2.035-3.134-4.5-4.737-6.152c0.004,0.011,0.01,0.022,0.014,0.033
	c-4.12,1.222-8.185,2.603-12.158,4.245c-1.992,0.824-3.958,1.723-5.9,2.692c1.192,3.108,2.598,6,3.97,8.238
	c0.537,0.876,1.068,1.659,1.578,2.308c3.943,5.188,10.434,9.936,10.453,9.933c4.382-0.73,8.482-2.831,11.032-5.639
	c0.119,0.247,0.24,0.492,0.357,0.74c4.764-4.889,10.7-15.17,11.556-22.292c0.978-0.153,1.938-0.522,2.798-1.136
	c1.147-0.817,1.948-1.938,2.382-3.173C444.712,265.771,444.475,263.532,443.184,261.723z"></path>
<path id="color_x5F_4" fill="#00CEC9" d="M492.268,398.979c-6.542,8.641-3.817,7.168-10.298,21.793
	c-4.42,9.975-13.612,12.137-19.014,12.504c3.097-4.121,6.055-8.342,8.912-12.627c0.049-0.01,0.094-0.012,0.145-0.035
	c2.209-1.059,4.486-1.998,6.387-3.582c0.557-0.465-0.122-1.365-0.681-0.9c-1.409,1.176-3.03,1.979-4.673,2.75
	c5.966-9.082,11.451-18.482,16.576-28.064c0.342-0.641-0.705-1.059-1.045-0.424c-4.328,8.092-8.922,16.045-13.84,23.791
	c0.309-3.572,0.919-7.115,0.826-10.715c-0.019-0.727-1.137-0.574-1.119,0.146c0.096,3.711-0.604,7.369-0.881,11.059
	c-0.027,0.342,0.212,0.551,0.475,0.604c-3.896,6.08-7.993,12.031-12.35,17.799c-0.415,1.215-1.048,2.389-1.598,3.453
	c-0.896,1.736-1.868,3.464-2.672,5.256c1.715,2.338,2.96,5.035,3.588,7.958h-57.718h-57.72h-57.718
	c0.088-0.41,0.203-0.81,0.314-1.211c4.125-2.31,7.083-6.435,7.817-11.294c3.295-2.429,7.32-3.947,11.7-4.158
	c0.352-0.019,0.704-0.027,1.06-0.027c1.083,0,2.14,0.088,3.176,0.243c3.467,0.515,6.657,1.85,9.374,3.799
	c-0.265-1.079-0.417-2.205-0.417-3.366c0-7.96,6.542-14.416,14.611-14.416c5.957,0,11.067,3.521,13.347,8.563
	c0.671-7.642,5.688-14.054,12.602-16.819l4.891,26.244l-13.348,12.188h15.722l-2.017-11.263c0.84-2.155,5.735-15.149,6.469-27.327
	c0.019-0.306,0.017-0.585,0.029-0.884c0.42,0.086,0.837,0.184,1.248,0.295c1.714-0.464,3.517-0.716,5.381-0.716
	c6.023,0,11.426,2.593,15.141,6.704l6.876,22.146l-12.094,11.044h15.722l-2.21-12.338l-1.313,1.199
	c0.465-1.232,3.074-8.381,4.481-17.29c2.068-1.111,4.436-1.748,6.958-1.748c8.069,0,14.612,6.456,14.612,14.416
	c0,1.161-0.152,2.287-0.417,3.366c2.717-1.949,5.906-3.284,9.374-3.799c0.175-0.026,0.355-0.039,0.532-0.061
	c-2.67-1.773-5.5-4.821-7.338-10.086c-2.885-8.26-1.013-15.256-6.367-22.266c-5.354-7.012-7.848-17.285-2.207-19.498
	s9.262,5.912,12.715,14.537c3.453,8.627,3.576,5.975,11.453,17.203c5.371,7.658,2.894,15.365,0.774,19.494
	c-1.657-4.096-3.448-8.135-5.332-12.129c0.015-0.039,0.032-0.074,0.038-0.123c0.199-2.09,0.517-4.18,0.193-6.273
	c-0.096-0.615-1.058-0.516-0.963,0.102c0.24,1.555,0.113,3.1-0.047,4.646c-4.032-8.396-8.51-16.584-13.282-24.586
	c-0.319-0.533-1.091,0.049-0.774,0.58c4.03,6.758,7.841,13.65,11.355,20.688c-2.488-1.807-4.819-3.82-7.506-5.346
	c-0.542-0.309-0.924,0.582-0.387,0.887c2.769,1.57,5.146,3.703,7.734,5.537c0.238,0.172,0.497,0.088,0.651-0.082
	c2.784,5.635,5.383,11.361,7.719,17.199c-0.025,0.043-0.046,0.074-0.071,0.116c2.508,0.687,4.835,1.799,6.88,3.276
	c0.026-8.878,2.05-17.605,3.007-26.46c-0.196,0.092-0.31,0.137-0.31,0.137s-0.928-0.539-2.254-1.594
	c0.049-7.334,0.432-14.658,1.055-21.963c0.24,0.119,0.556,0.1,0.744-0.188c2.027-3.094,3.699-6.422,6.035-9.309
	c0.454-0.559-0.339-1.363-0.797-0.797c-2.267,2.799-3.939,5.979-5.871,9.002c0.817-9.139,2.02-18.246,3.516-27.301
	c0.117-0.711-0.969-1.016-1.088-0.299c-1.771,10.721-3.146,21.518-3.947,32.354c-0.833-1.613-1.631-3.236-2.031-5.025
	c-0.16-0.711-1.247-0.41-1.088,0.299c0.541,2.412,1.775,4.545,2.884,6.73c0.024,0.049,0.06,0.08,0.092,0.115
	c-0.343,5.141-0.568,10.289-0.622,15.443c-4.061-3.582-10.034-10.895-7.464-21.496c3.77-15.549,5.032-12.723,5.108-23.559
	c0.074-10.836,0.545-21.201,7.613-21.201c7.066,0,8.734,12.217,5.908,22.109c-2.827,9.895,2.185,16.693,2.572,26.891
	c0.409,10.793-4.743,16.133-7.935,18.393c-0.942,9.842-3.361,19.535-3.091,29.41c0.441,0.411,0.864,0.838,1.269,1.284
	c0.393-0.815,0.81-1.619,1.228-2.418c0.681-1.299,1.672-2.816,2.297-4.371c-0.512-0.033-0.803-0.068-0.803-0.068
	s-6.106-10.037,3.832-22.008c6.519-7.852,14.635-10.189,18.419-19.758c3.785-9.568,12.548-18.24,18.153-13.936
	S498.809,390.339,492.268,398.979z M131.93,158.161h155.883v86.889l-10.91-3.33v105l10.91-3.5v93.749H131.93v-95.052l14.973,4.803
	v-105l-14.973,4.57V158.161z M164.903,344.72h91v-105h-91V344.72z M304.903,314.196c3.866,0,7-5.82,7-13
	c0-2.866-1.116-7.98-2.456-13.092c-0.772-0.576-1.471-1.157-2.087-1.742c-0.804,0.351-1.691,0.548-2.625,0.548
	c-1.391,0-2.679-0.435-3.741-1.171c-1.603,5.84-3.091,12.147-3.091,15.457C297.903,308.376,301.037,314.196,304.903,314.196z
	 M304.735,273.761c0.173,0,0.343,0.013,0.513,0.026c-0.217-0.677-0.345-1.067-0.345-1.067s-0.126,0.383-0.339,1.05
	C304.621,273.769,304.677,273.761,304.735,273.761z M448.511,185.764c0.653,0,1.181-0.527,1.181-1.179v-10.534
	c0-0.652-0.528-1.182-1.181-1.182s-1.182,0.529-1.182,1.182v10.534C447.329,185.237,447.858,185.764,448.511,185.764z
	 M448.511,217.353c0.653,0,1.181-0.529,1.181-1.181V205.64c0-0.654-0.528-1.182-1.181-1.182s-1.182,0.527-1.182,1.182v10.532
	C447.329,216.824,447.858,217.353,448.511,217.353z M427.451,196.293h10.532c0.653,0,1.183-0.529,1.183-1.183
	c0-0.652-0.53-1.181-1.183-1.181h-10.532c-0.653,0-1.182,0.529-1.182,1.181C426.269,195.764,426.798,196.293,427.451,196.293z
	 M457.857,195.111c0,0.653,0.528,1.183,1.181,1.183h10.533c0.652,0,1.182-0.529,1.182-1.183c0-0.652-0.53-1.181-1.182-1.181h-10.533
	C458.385,193.93,457.857,194.458,457.857,195.111z M440.231,188.503c0.461,0.461,1.21,0.461,1.672,0
	c0.461-0.462,0.461-1.209,0-1.671l-7.448-7.448c-0.461-0.463-1.21-0.463-1.67,0c-0.462,0.462-0.462,1.209,0,1.671L440.231,188.503z
	 M462.567,210.839c0.462,0.461,1.209,0.461,1.67,0c0.461-0.462,0.461-1.209,0-1.673l-7.448-7.446c-0.461-0.461-1.209-0.461-1.671,0
	s-0.461,1.209,0,1.67L462.567,210.839z M441.903,201.72c-0.461-0.461-1.21-0.461-1.671,0l-7.447,7.446
	c-0.462,0.464-0.462,1.211,0,1.673c0.46,0.461,1.209,0.461,1.67,0l7.448-7.449C442.364,202.929,442.364,202.181,441.903,201.72z
	 M456.79,188.503l7.448-7.448c0.461-0.461,0.461-1.209,0-1.671c-0.461-0.463-1.208-0.463-1.67,0l-7.448,7.448
	c-0.461,0.462-0.461,1.209,0,1.671C455.581,188.964,456.329,188.964,456.79,188.503z M320.735,363.399
	c0.578,0,1.045-0.467,1.045-1.043v-9.322c0-0.577-0.467-1.045-1.045-1.045s-1.046,0.468-1.046,1.045v9.322
	C319.689,362.932,320.158,363.399,320.735,363.399z M320.735,391.353c0.578,0,1.045-0.468,1.045-1.045v-9.32
	c0-0.579-0.467-1.045-1.045-1.045s-1.046,0.466-1.046,1.045v9.32C319.689,390.885,320.158,391.353,320.735,391.353z M312.466,371.67
	c0-0.577-0.469-1.045-1.046-1.045h-9.321c-0.578,0-1.046,0.468-1.046,1.045c0,0.578,0.468,1.047,1.046,1.047h9.321
	C311.997,372.717,312.466,372.248,312.466,371.67z M339.373,370.625h-9.321c-0.578,0-1.045,0.468-1.045,1.045
	c0,0.578,0.468,1.047,1.045,1.047h9.321c0.577,0,1.046-0.469,1.046-1.047C340.418,371.093,339.95,370.625,339.373,370.625z
	 M314.888,364.344l-6.591-6.591c-0.408-0.41-1.071-0.41-1.478,0c-0.409,0.409-0.409,1.07,0,1.479l6.59,6.591
	c0.408,0.408,1.071,0.408,1.479,0C315.296,365.414,315.296,364.753,314.888,364.344z M333.174,385.588
	c0.409,0.408,1.07,0.408,1.479,0c0.408-0.409,0.408-1.07,0-1.48l-6.591-6.589c-0.409-0.408-1.07-0.408-1.479,0
	c-0.408,0.408-0.408,1.07,0,1.479L333.174,385.588z M308.296,385.588l6.591-6.591c0.408-0.409,0.408-1.07,0-1.479
	s-1.071-0.408-1.479,0l-6.59,6.589c-0.409,0.411-0.409,1.072,0,1.48C307.226,385.996,307.889,385.996,308.296,385.588z
	 M328.062,365.823l6.591-6.591c0.408-0.408,0.408-1.07,0-1.479c-0.408-0.41-1.07-0.41-1.479,0l-6.591,6.591
	c-0.408,0.409-0.408,1.07,0,1.479C326.992,366.23,327.653,366.23,328.062,365.823z M425.055,328.382c0.49,0,0.886-0.396,0.886-0.884
	v-7.901c0-0.489-0.396-0.886-0.886-0.886s-0.886,0.397-0.886,0.886v7.901C424.169,327.986,424.565,328.382,425.055,328.382z
	 M425.055,352.076c0.49,0,0.886-0.396,0.886-0.886v-7.899c0-0.491-0.396-0.886-0.886-0.886s-0.886,0.395-0.886,0.886v7.899
	C424.169,351.679,424.565,352.076,425.055,352.076z M409.259,336.28h7.9c0.49,0,0.887-0.397,0.887-0.887
	c0-0.489-0.397-0.886-0.887-0.886h-7.9c-0.49,0-0.887,0.396-0.887,0.886C408.373,335.883,408.77,336.28,409.259,336.28z
	 M441.738,335.393c0-0.489-0.397-0.886-0.886-0.886h-7.901c-0.49,0-0.886,0.396-0.886,0.886c0,0.49,0.396,0.887,0.886,0.887h7.901
	C441.341,336.28,441.738,335.883,441.738,335.393z M418.845,330.437c0.346,0.346,0.908,0.346,1.254,0
	c0.346-0.346,0.346-0.907,0-1.253l-5.586-5.586c-0.346-0.347-0.908-0.347-1.253,0c-0.347,0.347-0.347,0.907,0,1.253L418.845,330.437
	z M430.012,341.603l5.586,5.586c0.347,0.346,0.907,0.346,1.253,0c0.346-0.346,0.346-0.907,0-1.255l-5.586-5.585
	c-0.346-0.346-0.907-0.346-1.253,0C429.666,340.696,429.666,341.257,430.012,341.603z M418.845,340.35l-5.586,5.585
	c-0.347,0.348-0.347,0.909,0,1.255c0.345,0.346,0.907,0.346,1.253,0l5.586-5.586c0.346-0.346,0.346-0.907,0-1.253
	C419.753,340.004,419.191,340.004,418.845,340.35z M431.265,330.437l5.586-5.586c0.346-0.346,0.346-0.907,0-1.253
	c-0.346-0.347-0.907-0.347-1.253,0l-5.586,5.586c-0.346,0.347-0.346,0.907,0,1.253C430.358,330.782,430.919,330.782,431.265,330.437
	z M320.735,185.177c0.578,0,1.045-0.467,1.045-1.043v-9.322c0-0.577-0.467-1.045-1.045-1.045s-1.046,0.468-1.046,1.045v9.322
	C319.689,184.71,320.158,185.177,320.735,185.177z M320.735,213.131c0.578,0,1.045-0.468,1.045-1.045v-9.32
	c0-0.579-0.467-1.045-1.045-1.045s-1.046,0.466-1.046,1.045v9.32C319.689,212.663,320.158,213.131,320.735,213.131z
	 M302.099,194.495h9.321c0.578,0,1.046-0.469,1.046-1.047c0-0.577-0.469-1.045-1.046-1.045h-9.321c-0.578,0-1.046,0.468-1.046,1.045
	C301.053,194.026,301.521,194.495,302.099,194.495z M329.006,193.448c0,0.578,0.468,1.047,1.045,1.047h9.321
	c0.577,0,1.046-0.469,1.046-1.047c0-0.577-0.469-1.045-1.046-1.045h-9.321C329.474,192.403,329.006,192.871,329.006,193.448z
	 M313.409,187.601c0.408,0.408,1.071,0.408,1.479,0c0.408-0.409,0.408-1.07,0-1.479l-6.591-6.591c-0.408-0.41-1.071-0.41-1.478,0
	c-0.409,0.409-0.409,1.07,0,1.479L313.409,187.601z M333.174,207.366c0.409,0.408,1.07,0.408,1.479,0c0.408-0.409,0.408-1.07,0-1.48
	l-6.591-6.589c-0.409-0.408-1.07-0.408-1.479,0c-0.408,0.408-0.408,1.07,0,1.479L333.174,207.366z M314.888,199.296
	c-0.408-0.408-1.071-0.408-1.479,0l-6.59,6.589c-0.409,0.411-0.409,1.072,0,1.48c0.407,0.408,1.07,0.408,1.478,0l6.591-6.591
	C315.296,200.366,315.296,199.705,314.888,199.296z M328.062,187.601l6.591-6.591c0.408-0.408,0.408-1.07,0-1.479
	c-0.408-0.41-1.07-0.41-1.479,0l-6.591,6.591c-0.408,0.409-0.408,1.07,0,1.479C326.992,188.008,327.653,188.008,328.062,187.601z
	 M221.121,280.98c-3.6-0.694-7.35-0.811-10.524,1.492c1.848-3.865,4.638-6.331,7.755-6.331v-2.455
	c-4.298,0-8.024,3.277-10.269,8.375c-2.936-1.853-6.344-1.739-9.672-1.173c-7.313,1.245-11.458,9.894-9.258,19.317
	c2.2,9.423,9.912,16.053,17.225,14.809c1.09-0.186,2.108-0.539,3.047-1.032c0.842,0.432,1.75,0.753,2.72,0.94
	c7.274,1.402,15.18-5.059,17.659-14.432C232.282,291.118,228.395,282.382,221.121,280.98z M129.885,294.156
	c-0.536-3.873-2.984-7.101-6.32-8.65c-1.359-0.632-2.862-0.992-4.449-0.992c-5.482,0-10.015,4.191-10.77,9.643h15.219H129.885z
	 M108.345,301.299c0.489,3.535,2.568,6.539,5.464,8.214h9.755h0.856c2.896-1.676,4.975-4.679,5.464-8.214h-6.32H108.345z
	 M132.749,297.728c0-0.7-0.354-1.28-0.819-1.402c-0.059-0.016-0.12-0.026-0.182-0.026h-8.184h-17.083
	c-0.553,0-1.001,0.64-1.001,1.429c0,0.789,0.448,1.428,1.001,1.428h17.083h8.184c0.062,0,0.123-0.011,0.182-0.026
	C132.396,299.008,132.749,298.428,132.749,297.728z"></path>
<path id="color_x5F_3" fill="#E84393" d="M329.903,329.72l-33.725,10.817l-8.365,2.683l-10.91,3.5v-105l10.91,3.33l8.365,2.553
	l33.143,10.117l0.204,25.241c-5.328-0.879-11.466-1.398-11.466-1.398s-3.402-0.64-6.768-0.843c0.008-0.128,0.02-0.254,0.02-0.384
	c0-3.458-2.67-6.286-6.062-6.549c-0.217-0.677-0.345-1.067-0.345-1.067s-0.126,0.383-0.339,1.05
	c-3.551,0.092-6.403,2.993-6.403,6.566c0,2.24,1.123,4.216,2.833,5.403c-1.603,5.84-3.091,12.147-3.091,15.457c0,7.18,3.134,13,7,13
	s7-5.82,7-13c0-2.866-1.116-7.98-2.456-13.092c5.142,3.832,13.395,7.366,20.194,9.268L329.903,329.72z M131.93,246.29l14.973-4.57
	v105l-14.973-4.803l-8.365-2.683l-29.662-9.514l0.583-72l29.079-8.876L131.93,246.29z M108.345,294.156h15.219h6.32
	c-0.536-3.873-2.984-7.101-6.32-8.65c-1.359-0.632-2.862-0.992-4.449-0.992C113.633,284.514,109.1,288.705,108.345,294.156z
	 M129.885,301.299h-6.32h-15.219c0.489,3.535,2.568,6.539,5.464,8.214h9.755h0.856C127.316,307.838,129.396,304.834,129.885,301.299
	z M131.93,296.326c-0.059-0.016-0.12-0.026-0.182-0.026h-8.184h-17.083c-0.553,0-1.001,0.64-1.001,1.429
	c0,0.789,0.448,1.428,1.001,1.428h17.083h8.184c0.062,0,0.123-0.011,0.182-0.026c0.466-0.122,0.819-0.702,0.819-1.402
	C132.749,297.028,132.396,296.448,131.93,296.326z"></path>
<path id="color_x5F_2" fill="#FBC02D" d="M164.903,344.72h91v-105h-91V344.72z M198.411,280.888c3.328-0.566,6.736-0.68,9.672,1.173
	c2.245-5.098,5.971-8.375,10.269-8.375v2.455c-3.117,0-5.907,2.466-7.755,6.331c3.175-2.303,6.925-2.187,10.524-1.492
	c7.274,1.402,11.161,10.138,8.683,19.51c-2.479,9.373-10.385,15.834-17.659,14.432c-0.97-0.187-1.877-0.508-2.72-0.94
	c-0.939,0.493-1.957,0.846-3.047,1.032c-7.313,1.245-15.025-5.385-17.225-14.809C186.953,290.782,191.097,282.133,198.411,280.888z
	 M405.801,276.049c-1.992,0.824-3.958,1.723-5.9,2.692c1.192,3.108,2.598,6,3.97,8.238l-6.023,34.11l-0.176,0.996h-40.858
	l-0.475-2.687l-5.207-29.488l-1.768-10.01c-3.766-3.019-6.808-6.686-8.499-11.537c-0.103-0.295-0.229-0.562-0.375-0.805
	c0.003-0.007,0.007-0.013,0.011-0.02c0.469-0.901,0.959-1.83,1.458-2.758c0.041-0.076,0.082-0.152,0.123-0.228
	c0.124-0.229,0.247-0.458,0.372-0.686c0.052-0.096,0.105-0.191,0.158-0.288c0.114-0.208,0.228-0.417,0.342-0.624
	c0.058-0.104,0.116-0.208,0.173-0.311c0.109-0.197,0.219-0.394,0.328-0.588c0.061-0.108,0.121-0.214,0.182-0.322
	c0.105-0.186,0.21-0.372,0.315-0.555c0.064-0.113,0.129-0.224,0.193-0.334c0.1-0.173,0.2-0.345,0.299-0.515
	c0.066-0.113,0.132-0.225,0.198-0.337c0.097-0.164,0.193-0.326,0.29-0.485c0.067-0.112,0.134-0.223,0.2-0.332
	c0.092-0.153,0.184-0.302,0.276-0.45c0.066-0.108,0.133-0.216,0.199-0.321c0.09-0.145,0.18-0.285,0.269-0.424
	c0.064-0.101,0.129-0.202,0.192-0.3c0.088-0.136,0.175-0.266,0.261-0.396c0.062-0.093,0.125-0.188,0.186-0.277
	c0.086-0.126,0.169-0.246,0.252-0.365c0.058-0.083,0.117-0.168,0.173-0.247c0.086-0.12,0.168-0.23,0.251-0.342
	c0.051-0.069,0.104-0.142,0.154-0.207c0.09-0.118,0.176-0.224,0.263-0.33c0.04-0.049,0.081-0.103,0.119-0.148
	c0.123-0.146,0.242-0.282,0.356-0.402c0.167-0.177,0.34-0.341,0.514-0.502c1.588-2.151,3.833-3.502,6.331-3.502h13.936h0.414
	c0.306,0.659,0.694,1.276,1.153,1.839c1.462,1.793,3.697,3.006,6.718,3.006c0.576,0,1.114-0.056,1.633-0.139
	c3.06-0.492,5.143-2.349,6.238-4.707h0.29h14.245c2.769,0,5.229,1.656,6.824,4.228c5.137,3.367,9.103,10.805,11.564,16.582
	c0.004,0.011,0.01,0.022,0.014,0.033C413.839,273.026,409.774,274.407,405.801,276.049z"></path>
<path id="color_x5F_1" fill="#4a90e2" d="M287.813,343.22l8.365-2.683v94.353c0,0.801-0.079,1.581-0.195,2.349
	c-0.734,4.859-3.691,8.984-7.817,11.294c-2.256,1.263-4.852,1.99-7.621,1.99H139.198c-8.635,0-15.634-6.999-15.634-15.633v-95.656
	l8.365,2.683v95.052h155.883V343.22z M280.545,144.757H139.198c-8.635,0-15.634,6.999-15.634,15.633v88.454l8.365-2.554v-88.129
	h155.883v86.889l8.365,2.553V160.39C296.178,151.756,289.178,144.757,280.545,144.757z M399.355,366.047
	c-0.052-0.666-0.101-1.33-0.149-1.994c-0.002-0.029-0.004-0.059-0.006-0.087c-0.045-0.633-0.089-1.264-0.13-1.894
	c-0.004-0.062-0.008-0.124-0.012-0.186c-0.04-0.604-0.077-1.205-0.112-1.804c-0.005-0.081-0.01-0.161-0.015-0.242
	c-0.033-0.567-0.063-1.13-0.093-1.69c-0.006-0.114-0.012-0.228-0.018-0.341c-0.027-0.528-0.051-1.052-0.074-1.573
	c-0.006-0.138-0.012-0.277-0.018-0.415c-0.021-0.492-0.039-0.979-0.056-1.462c-0.005-0.16-0.012-0.321-0.017-0.479
	c-0.015-0.459-0.027-0.912-0.039-1.362c-0.004-0.174-0.009-0.351-0.013-0.524c-0.01-0.43-0.016-0.853-0.021-1.274
	c-0.003-0.184-0.006-0.37-0.008-0.551c-0.004-0.401-0.004-0.792-0.005-1.183c0-0.193-0.001-0.39,0-0.581
	c0.001-0.372,0.006-0.732,0.011-1.094c0.003-0.198,0.004-0.4,0.008-0.595c0.006-0.341,0.017-0.669,0.027-1
	c0.006-0.203,0.011-0.411,0.019-0.61c0.012-0.317,0.029-0.621,0.044-0.927c0.01-0.197,0.018-0.399,0.03-0.591
	c0.018-0.299,0.041-0.584,0.063-0.872c0.014-0.184,0.025-0.375,0.041-0.554c0.024-0.286,0.055-0.555,0.083-0.828
	c0.017-0.164,0.032-0.337,0.051-0.497c0.034-0.285,0.073-0.551,0.112-0.819c0.019-0.131,0.035-0.271,0.055-0.398
	c0.061-0.386,0.128-0.754,0.201-1.102c1.103-5.255,0.154-11.577-1.464-17.429l-0.176,0.996h-40.858l-0.475-2.687
	c-1.094,7.98-2.832,21.913-3.3,32.999c-0.049,1.17-0.076,2.329-0.085,3.475c-0.001,0.093,0,0.185-0.001,0.277
	c-0.006,1.067,0.003,2.122,0.027,3.16c0.002,0.106,0.005,0.211,0.007,0.317c0.026,1.043,0.066,2.07,0.118,3.076
	c0.003,0.072,0.007,0.145,0.011,0.216c0.057,1.069,0.125,2.117,0.206,3.135h19.879c0-0.004,0.001-0.008,0.002-0.012
	c0.098-0.71,0.198-1.417,0.299-2.12c0.012-0.086,0.025-0.171,0.038-0.256c0.091-0.629,0.184-1.254,0.278-1.875
	c0.04-0.26,0.08-0.515,0.12-0.773c0.072-0.462,0.143-0.925,0.216-1.381c0.118-0.735,0.237-1.462,0.359-2.177
	c0.144,0.675,0.295,1.342,0.45,2.003c0.036,0.152,0.071,0.304,0.107,0.456c0.156,0.658,0.316,1.311,0.482,1.954
	c0.001,0.002,0.001,0.005,0.002,0.007c0.168,0.651,0.341,1.292,0.517,1.926c0.034,0.122,0.067,0.244,0.102,0.365
	c0.177,0.631,0.356,1.256,0.539,1.868c0.001,0.005,0.003,0.011,0.004,0.016h0h22.639
	C399.356,366.052,399.355,366.05,399.355,366.047z M366.491,437.152l-0.165,0.15l-13.348,12.188h15.722l-2.017-11.263
	L366.491,437.152z M403.245,437.152l-1.313,1.199l-0.105,0.095l-12.094,11.044h15.722L403.245,437.152z M375.209,226.597
	c-0.412-0.044-0.795,0.462-0.86,1.129c-0.063,0.671,0.219,1.249,0.627,1.293c0.412,0.044,0.793-0.464,0.86-1.13
	C375.902,227.219,375.618,226.641,375.209,226.597z M366.654,226.597c-0.412-0.044-0.795,0.462-0.86,1.129
	c-0.063,0.671,0.219,1.249,0.626,1.293c0.413,0.044,0.793-0.464,0.86-1.13C367.347,227.219,367.063,226.641,366.654,226.597z"></path>
</svg>