<?xml version="1.0" standalone="no"?>
<svg version="1.1" id="Layer_1" xmlns="http://www.w3.org/2000/svg" xmlns:xlink="http://www.w3.org/1999/xlink" x="0px" y="0px" width="595.28px" height="595.28px" viewBox="0 0 595.28 595.28" enable-background="new 0 0 595.28 595.28" xml:space="preserve">
<path id="color_x5F_5" fill="#FFD2BB" d="M210.861,229.218c1.06,1.442,2.663,2.395,1.444,3.289c-0.269,0.201-0.666,0.378-1.12,0.521
	c1.096,4.818,2.108,8.588-2.332,9.106c-1.359,0.158-3.114-0.011-5.014-0.44c-0.099-3.665-0.36-7.021-0.666-9.872
	c0.251-0.771,0.354-1.602,0.329-2.464c-0.026-0.981-0.227-2.002-0.59-3.029c-0.191-0.542-0.44-1.083-0.717-1.621
	c-0.06-0.351-0.115-0.664-0.165-0.938c0.366-0.091,1.017-0.214,1.778-0.344c0.51-0.088,1.061-0.178,1.605-0.264
	c1.423-0.226,2.766-0.42,2.995-0.447l0.081-0.011c0.926,1.614,1.565,3.48,1.8,5.514c0.019,0.147,0.035,0.291,0.061,0.436
	C210.53,228.822,210.704,229.004,210.861,229.218z M293.207,241.713c-0.085-0.026-0.175-0.041-0.261-0.063
	c-0.394-0.104-0.797-0.18-1.222-0.18h-2.215c-0.071,0-0.14,0.011-0.21,0.02c-0.068,0.009-0.139,0.015-0.209,0.02
	c-1.326,0.112-2.504,0.725-3.347,1.65c-0.049,0.054-0.086,0.118-0.132,0.174c-0.341,0.409-0.631,0.863-0.832,1.368
	c-0.227,0.571-0.352,1.195-0.352,1.85c0,1.108,0.371,2.119,0.975,2.948c0.773,1.064,1.944,1.817,3.303,2.038
	c0.127,0.021,0.254,0.043,0.385,0.054c0.141,0.012,0.275,0.042,0.419,0.042h2.215c0.22,0,0.432-0.026,0.642-0.058
	c0.287-0.043,0.568-0.104,0.841-0.187c2.078-0.638,3.601-2.549,3.601-4.837C296.808,244.265,295.285,242.351,293.207,241.713z
	 M204.636,352.094c-4.955-0.051-11.764-0.149-13.977-0.215c-0.958-0.028-2.573-0.14-4.041-0.263
	c0.59,6.692,1.363,13.332,2.291,17.763c-0.045,0.578-0.092,1.115-0.139,1.635c-1.197,3.8-1.111,8.344-1.111,11.865
	c0,6.177-1.684,26.265,1.839,33.482l3.795-0.2c0.544-1.321,1.099-3.128,1.644-5.32h0.104l1.689-6.972l-0.275-0.155
	c2.028-10.913,3.613-25.232,3.536-33.441c-0.024,0-0.06,0-0.087,0c0.002-0.046,0.004-0.099,0.006-0.144
	C202.03,366.944,203.552,359.967,204.636,352.094z M211.759,308.792c0.002-0.002,0.002-0.012,0.004-0.016
	c-0.002,0.003-0.012,0.012-0.015,0.016H211.759z"></path>
<path id="color_x5F_4" fill="#00CEC9" d="M254.062,341.527v9.468c0,0.586-0.476,1.06-1.063,1.06c-0.585,0-1.063-0.474-1.063-1.06
	v-9.468c0-0.588,0.478-1.062,1.063-1.062C253.586,340.466,254.062,340.939,254.062,341.527z M252.998,368.856
	c-0.585,0-1.063,0.474-1.063,1.061v9.468c0,0.584,0.478,1.062,1.063,1.062c0.588,0,1.063-0.478,1.063-1.062v-9.468
	C254.062,369.33,253.586,368.856,252.998,368.856z M240.363,346.319c-0.413-0.415-1.083-0.415-1.503,0
	c-0.41,0.416-0.41,1.09,0,1.504l6.698,6.692c0.412,0.416,1.086,0.416,1.501,0c0.415-0.414,0.415-1.085,0-1.503L240.363,346.319z
	 M271.927,359.395h-9.466c-0.588,0-1.065,0.473-1.065,1.062c0,0.587,0.478,1.061,1.065,1.061h9.466c0.586,0,1.062-0.474,1.062-1.061
	C272.988,359.867,272.513,359.395,271.927,359.395z M245.559,366.395l-6.698,6.693c-0.41,0.416-0.41,1.087,0,1.504
	c0.42,0.414,1.09,0.414,1.503,0l6.696-6.695c0.415-0.414,0.415-1.086,0-1.502C246.645,365.98,245.971,365.98,245.559,366.395z
	 M260.439,354.516l6.692-6.692c0.417-0.414,0.417-1.088,0-1.504c-0.414-0.415-1.087-0.415-1.499,0l-6.695,6.693
	c-0.415,0.418-0.415,1.089,0,1.503C259.354,354.932,260.024,354.932,260.439,354.516z M260.439,366.395
	c-0.415-0.414-1.086-0.414-1.502,0c-0.415,0.416-0.415,1.088,0,1.502l6.695,6.695c0.412,0.414,1.085,0.414,1.499,0
	c0.417-0.417,0.417-1.088,0-1.504L260.439,366.395z M137.758,214.855c-0.413-0.415-1.083-0.415-1.503,0
	c-0.41,0.417-0.41,1.09,0,1.504l6.697,6.693c0.413,0.415,1.087,0.415,1.502,0s0.415-1.086,0-1.503L137.758,214.855z
	 M157.833,234.932c-0.414-0.415-1.085-0.415-1.502,0c-0.414,0.415-0.414,1.087,0,1.502l6.696,6.694c0.412,0.414,1.085,0.414,1.499,0
	c0.417-0.416,0.417-1.088,0-1.504L157.833,234.932z M244.597,360.456c0-0.589-0.476-1.062-1.062-1.062h-9.464
	c-0.588,0-1.063,0.473-1.063,1.062c0,0.587,0.476,1.061,1.063,1.061h9.464C244.121,361.517,244.597,361.043,244.597,360.456z
	 M169.321,227.931h-9.466c-0.588,0-1.065,0.473-1.065,1.062c0,0.587,0.478,1.061,1.065,1.061h9.466c0.586,0,1.062-0.474,1.062-1.061
	C170.383,228.403,169.907,227.931,169.321,227.931z M150.393,209.002c-0.586,0-1.063,0.475-1.063,1.062v9.469
	c0,0.585,0.477,1.059,1.063,1.059c0.588,0,1.063-0.474,1.063-1.059v-9.469C151.456,209.477,150.98,209.002,150.393,209.002z
	 M157.833,223.053l6.693-6.693c0.417-0.414,0.417-1.087,0-1.504c-0.414-0.415-1.087-0.415-1.499,0l-6.696,6.694
	c-0.414,0.417-0.414,1.088,0,1.503C156.748,223.468,157.419,223.468,157.833,223.053z M142.952,234.932l-6.697,6.692
	c-0.41,0.416-0.41,1.088,0,1.504c0.42,0.414,1.09,0.414,1.503,0l6.696-6.694c0.415-0.415,0.415-1.087,0-1.502
	S143.365,234.517,142.952,234.932z M141.991,228.992c0-0.589-0.476-1.062-1.062-1.062h-9.464c-0.588,0-1.063,0.473-1.063,1.062
	c0,0.587,0.476,1.061,1.063,1.061h9.464C141.516,230.053,141.991,229.579,141.991,228.992z M150.393,237.393
	c-0.586,0-1.063,0.474-1.063,1.061v9.468c0,0.585,0.477,1.062,1.063,1.062c0.588,0,1.063-0.477,1.063-1.062v-9.468
	C151.456,237.866,150.98,237.393,150.393,237.393z"></path>
<path id="color_x5F_3" fill="#E84393" d="M370.166,380.462h16.296v52.903h-16.296V380.462z M339.075,433.364h16.294v-32.062h-16.294
	V433.364z M222.721,270.498c-2.699,4.735-6.548,10.909-11.287,16.991c-0.346,0.443-0.697,0.886-1.052,1.328
	c-1.951,2.429-4.041,4.823-6.257,7.085c-1.334,1.362-2.71,2.68-4.13,3.925c-4,3.506-7.45,6.476-10.386,8.966h22.139
	c0.003-0.003,0.013-0.013,0.015-0.016c0.335-0.54-1.436-8.439-1.354-8.647c0.339-0.857,0.708-1.888,1.11-3.023l-0.32-0.662
	l0.715-0.952c0.08-0.191,0.163-0.404,0.246-0.613l0.087,0.183c2.246-6.265,5.65-14.951,11.945-21.34
	c0.869-3.336,1.613-6.268,2.135-8.353c0.505-2.012,0.805-3.24,0.805-3.24s-0.451,0.97-1.293,2.615
	C225.097,266.192,224.05,268.166,222.721,270.498z M404.85,433.365h16.295v-76.95H404.85V433.365z M437.737,324.353v109.013h16.294
	V324.353H437.737z"></path>
<path id="color_x5F_2" fill="#FBC02D" d="M255.591,227.436c-0.355,0-0.646-0.327-0.646-0.729c0-0.404,0.291-0.73,0.646-0.73h6.348
	c0.356,0,0.646,0.326,0.646,0.73c0,0.401-0.289,0.729-0.646,0.729H255.591z M249.243,227.436c0.358,0,0.647-0.327,0.647-0.729
	c0-0.404-0.289-0.73-0.647-0.73h-6.347c-0.355,0-0.646,0.326-0.646,0.73c0,0.401,0.29,0.729,0.646,0.729H249.243z M274.633,227.436
	c0.358,0,0.646-0.327,0.646-0.729c0-0.404-0.288-0.73-0.646-0.73h-6.347c-0.357,0-0.645,0.326-0.645,0.73
	c0,0.401,0.287,0.729,0.645,0.729H274.633z M223.854,227.436c0.357,0,0.646-0.327,0.646-0.729c0-0.404-0.289-0.73-0.646-0.73h-3.23
	c-0.357,0-0.646,0.326-0.646,0.73c0,0.401,0.289,0.729,0.646,0.729H223.854z M211.759,308.792h-0.011h-22.139
	c2.936-2.49,6.386-5.46,10.386-8.966c1.42-1.245,2.796-2.563,4.13-3.925c2.216-2.263,4.306-4.656,6.257-7.085
	c0.354-0.442,0.706-0.884,1.052-1.328c4.739-6.082,8.588-12.255,11.287-16.991c1.329-2.332,2.376-4.305,3.118-5.754
	c0.842-1.645,1.293-2.615,1.293-2.615c6.092-0.647,14.283-1.77,21.955-3.121c3.045,0.109,7.299-1.222,10.617-1.907
	c3.787-0.795,17.712-4.088,25.694-7.602c-0.601-0.836-0.974-1.838-0.974-2.948c0-0.652,0.127-1.276,0.355-1.849
	c0.201-0.504,0.491-0.959,0.832-1.368c0.045-0.055,0.082-0.119,0.13-0.172c-10.975-0.479-34.968,3.54-35.762,4.005
	c-8.229-0.805-45.148-2.813-46.041-2.813h-0.06c0.057,14.655-2.734,33.167-15.221,44.024c-6.084,5.29-11.602,8.511-16.557,10.203
	c-0.072,0.025-0.145,0.05-0.217,0.074c-1.27,2.049-2.618,4.221-4.031,6.493c-8.93,14.356-7.564,28.523-7.564,28.523l16.183-14.138
	c0,0,0.399-0.301,1.212-0.937c-0.011,0.093-0.025,0.187-0.025,0.282c0,2.931,5.013,20.957,6.5,32.5
	c0.605,0.071,1.502,0.157,2.459,0.237c1.468,0.123,3.083,0.234,4.041,0.263c2.213,0.065,9.021,0.164,13.977,0.215
	c2.07,0.022,3.825,0.036,4.773,0.035c0-0.75,4.627-28.821,4.627-31.504C214.036,316.957,212.12,308.333,211.759,308.792z
	 M236.549,227.436c0.357,0,0.646-0.327,0.646-0.729c0-0.404-0.288-0.73-0.646-0.73h-6.348c-0.355,0-0.647,0.326-0.647,0.73
	c0,0.401,0.292,0.729,0.647,0.729H236.549z M350.802,225.977h-6.348c-0.357,0-0.646,0.326-0.646,0.73
	c0,0.401,0.288,0.729,0.646,0.729h6.348c0.356,0,0.646-0.327,0.646-0.729C351.448,226.303,351.158,225.977,350.802,225.977z
	 M338.107,225.977h-6.349c-0.356,0-0.645,0.326-0.645,0.73c0,0.401,0.288,0.729,0.645,0.729h6.349c0.356,0,0.646-0.327,0.646-0.729
	C338.753,226.303,338.464,225.977,338.107,225.977z M325.412,225.977h-6.347c-0.357,0-0.646,0.326-0.646,0.73
	c0,0.401,0.289,0.729,0.646,0.729h6.347c0.356,0,0.646-0.327,0.646-0.729C326.058,226.303,325.769,225.977,325.412,225.977z
	 M360.38,225.977h-3.231c-0.355,0-0.646,0.326-0.646,0.73c0,0.401,0.29,0.729,0.646,0.729h3.231c0.358,0,0.646-0.327,0.646-0.729
	C361.026,226.303,360.738,225.977,360.38,225.977z M300.022,225.977h-6.348c-0.356,0-0.646,0.326-0.646,0.73
	c0,0.401,0.289,0.729,0.646,0.729h6.348c0.357,0,0.646-0.327,0.646-0.729C300.669,226.303,300.38,225.977,300.022,225.977z
	 M220.972,161.915v3.643c0.23,0,0.457,0.017,0.687,0.02l-13.32,43.171c0.491,0.055,0.968,0.163,1.427,0.318l13.404-43.447
	c32.096,1.137,58.673,27.015,64.799,61.042c-0.021-0.382-0.297-0.685-0.64-0.685h-6.348c-0.357,0-0.646,0.326-0.646,0.73
	c0,0.401,0.288,0.729,0.646,0.729h6.348c0.356,0,0.646-0.326,0.647-0.726c0.857,4.783,1.316,9.723,1.324,14.78
	c0.07-0.009,0.139-0.02,0.21-0.02h2.215c0.425,0,0.828,0.076,1.222,0.18c0-0.004,0-0.009,0-0.014
	C292.946,197.678,260.658,161.915,220.972,161.915z M289.51,251.634c-0.144,0-0.278-0.03-0.419-0.042
	c-0.131-0.011-0.258-0.033-0.385-0.054c-4.287,36.54-31.939,64.994-65.669,66.117l-10.79-22.593l-0.087-0.183
	c-0.083,0.209-0.166,0.422-0.246,0.613l-0.715,0.952l0.32,0.662l9.972,20.593c-0.174,0.001-0.346,0.015-0.52,0.015v3.643
	c36.646,0,66.961-30.499,71.395-69.78c-0.21,0.032-0.422,0.058-0.642,0.058H289.51z M312.719,225.977h-6.348
	c-0.357,0-0.646,0.326-0.646,0.73c0,0.401,0.289,0.729,0.646,0.729h6.348c0.357,0,0.646-0.327,0.646-0.729
	C313.364,226.303,313.076,225.977,312.719,225.977z"></path>
<path id="color_x5F_1" fill="#0984E3" d="M226.327,265.369c1.633,2.078,4.833,4.843,4.499,14.177
	c-1.333,9.667-9.417,15.333-9.417,15.583c0.24-0.12-4.5-0.5-4.5-0.5s0.646-5.673,0.75-5.75c7.5-5.5,8.181-11.909,6.533-15.157
	C225.062,270.386,225.806,267.454,226.327,265.369z M209.765,209.066c-0.459-0.155-0.936-0.264-1.427-0.318
	c-0.505-0.056-1.021-0.062-1.546,0c-2.81,0.327-4.807,2.45-8.136,2.853c-0.761,0.086-1.347,0.146-1.805,0.18
	c-2.343,0.172-1.45-0.272-4.104,0.038c-0.135,0.014-0.266,0.03-0.393,0.049l-0.042,0.005c-10.062,2.044-10.245,8.778-9.418,13.129
	c0.068,0.36,0.168,0.717,0.275,1.072c0.514,5.734,1.179,19.552-3.512,25.806c-6,8-12.5,3-25,9s-14,21-10.5,27
	c4.757,8.155,14.067,15.335,27.727,10.777c0.072-0.024,0.145-0.049,0.217-0.074c4.955-1.692,10.473-4.913,16.557-10.203
	c12.486-10.858,15.277-29.369,15.221-44.024c-0.003-0.902-0.017-1.79-0.04-2.661c-0.099-3.665-0.36-7.021-0.666-9.872
	c0.251-0.771,0.354-1.602,0.329-2.464c-0.026-0.981-0.227-2.002-0.59-3.029c-0.191-0.542-0.44-1.083-0.717-1.621
	c-0.06-0.351-0.115-0.664-0.165-0.938c0.366-0.091,1.017-0.214,1.778-0.344c0.51-0.088,1.061-0.178,1.605-0.264
	c1.423-0.226,2.766-0.42,2.995-0.447l0.081-0.011h0.006c3.758-0.482,6.43-3.941,5.982-7.772
	C214.157,212.128,212.244,209.904,209.765,209.066z M464.878,232.112c0,27.139-49.136,85.203-49.136,85.203
	s-49.138-58.064-49.138-85.203c0-27.138,21.998-49.137,49.138-49.137C442.88,182.976,464.878,204.975,464.878,232.112z
	 M440.957,231.324c0-13.926-11.29-25.215-25.217-25.215c-13.925,0-25.216,11.289-25.216,25.215s11.291,25.215,25.216,25.215
	C429.667,256.539,440.957,245.25,440.957,231.324z M193.293,416.161l-3.795,0.2l-0.339,0.018l-3,13.5l27-0.5l-19.25-13.25
	L193.293,416.161z M196.729,403.869l-1.689,6.972l-0.131,0.538l14.75-0.25l-12.75-8L196.729,403.869z"></path>
</svg>