<?xml version="1.0" standalone="no"?>
<svg version="1.1" id="Layer_1_15_" xmlns="http://www.w3.org/2000/svg" xmlns:xlink="http://www.w3.org/1999/xlink" x="0px" y="0px" viewBox="0 0 595.276 595.276" enable-background="new 0 0 595.276 595.276" xml:space="preserve">
<path id="color_x5F_7" fill-rule="evenodd" clip-rule="evenodd" fill="#E96257" d="M418.525,136.124
	c0.075-0.007,0.151-0.006,0.229,0.004c0.31,0.04,0.632,0.227,0.868,0.655c0.088,0.16,0.256,0.26,0.437,0.26
	c0.183,0,0.351-0.1,0.439-0.26c0.471-0.857,1.294-0.751,1.656-0.423c0.182,0.165,0.293,0.425,0.293,0.804s-0.124,0.855-0.394,1.346
	c-0.003,0.004-0.004,0.009-0.006,0.013c-0.29,0.565-1.19,1.251-1.987,1.778c-0.797-0.526-1.695-1.213-1.986-1.778
	c-0.002-0.004-0.005-0.009-0.008-0.013c-0.27-0.491-0.392-0.968-0.392-1.346s0.109-0.639,0.291-0.804
	C418.101,136.237,418.302,136.145,418.525,136.124z M431.353,136.124c0.074-0.007,0.151-0.006,0.229,0.004
	c0.31,0.04,0.634,0.227,0.87,0.655c0.087,0.16,0.256,0.26,0.437,0.26s0.351-0.1,0.438-0.26c0.471-0.857,1.294-0.751,1.656-0.423
	c0.182,0.165,0.293,0.425,0.293,0.804s-0.124,0.855-0.395,1.346c-0.002,0.004-0.005,0.009-0.008,0.013
	c-0.29,0.565-1.188,1.251-1.986,1.778c-0.796-0.526-1.695-1.213-1.986-1.778c-0.002-0.004-0.004-0.009-0.006-0.013
	c-0.27-0.491-0.395-0.968-0.395-1.346s0.112-0.639,0.293-0.804C430.931,136.237,431.131,136.145,431.353,136.124z M410.154,101.247
	h13.022c-0.142,1.667-0.908,2.863-2.03,3.693c-1.233,0.913-2.911,1.359-4.587,1.325c-1.677-0.035-3.34-0.552-4.536-1.483
	C410.939,103.938,410.231,102.78,410.154,101.247z"></path>
<path id="color_x5F_6" fill-rule="evenodd" clip-rule="evenodd" fill="#1ACEBD" d="M375.54,433.922
	c0.532,1.318,3.82,10.008,0.517,17.749c-1.818,4.258-4.284,7.778-6.756,10c-1.787,1.605-3.536,2.49-5.039,2.59
	c0.856-0.537,1.518-1.368,1.979-2.395c0.557-1.246,0.838-2.784,0.868-4.523c0.03-1.776-0.207-3.763-0.702-5.862
	c0.085-0.046,0.156-0.115,0.203-0.201l6.748-10.85c0.052-0.081,0.08-0.175,0.08-0.272c0-0.267-0.214-0.488-0.48-0.499
	c-0.182-0.007-0.355,0.086-0.448,0.243l-6.426,10.335c-0.456-1.627-1.06-3.307-1.822-4.994c-0.242-0.535-0.509-1.05-0.796-1.549
	C367.491,437.257,374.814,434.217,375.54,433.922z M349.79,433.774c1.265,0.497,10.076,4.164,13.56,11.88
	c1.906,4.221,2.816,8.393,2.761,11.672c-0.028,1.639-0.298,3.053-0.781,4.132c-0.452,1.011-1.083,1.71-1.882,2.106
	c0.046-0.123,0.043-0.259-0.01-0.379l-8.226-18.421c-0.081-0.189-0.271-0.31-0.476-0.303c-0.268,0.009-0.482,0.232-0.482,0.499
	c0,0.072,0.015,0.143,0.046,0.209l8.226,18.421c0.044,0.098,0.118,0.178,0.211,0.231c-1.693,0.396-3.876-0.449-6.14-2.401
	c-2.517-2.172-5.057-5.643-6.962-9.863C346.153,443.848,349.309,435.037,349.79,433.774z M401.165,408.213
	c0.54,1.273,5.992,14.645,0.872,26.435c-2.718,6.259-6.405,11.437-10.122,14.72c-3.063,2.706-6.101,4.081-8.625,3.86
	c3.267-1.387,4.862-5.322,4.949-10.366c0.031-1.781-0.134-3.719-0.476-5.75c0.089,0.069,0.198,0.107,0.311,0.107
	c0.195,0,0.374-0.115,0.454-0.293l10.224-22.69c0.031-0.066,0.047-0.138,0.047-0.211c0-0.272-0.223-0.496-0.495-0.499
	c-0.2-0.001-0.383,0.117-0.462,0.301l-10.195,22.622c-0.659-3.54-1.865-7.356-3.632-11.203c-0.377-0.819-0.793-1.607-1.243-2.366
	C388.765,413.36,399.918,408.712,401.165,408.213z M378.411,445.953l3,6.553c0.032,0.069,0.079,0.131,0.139,0.179
	c-1.357,0.193-2.878-0.097-4.501-0.821C377.856,449.909,378.26,447.9,378.411,445.953z M362.539,408.045
	c1.201,0.451,12.958,5.051,19.051,14.82c-0.003,0.005-0.007,0.01-0.01,0.016l0.033,0.019c0.546,0.88,1.052,1.797,1.494,2.761
	c2.851,6.206,4.217,12.339,4.134,17.184c-0.083,4.844-1.599,8.303-4.343,9.467c-0.189,0.081-0.384,0.144-0.581,0.202
	c0.064-0.134,0.066-0.289,0.004-0.423l-3.629-7.926c-0.042-0.095-0.113-0.175-0.203-0.228c-0.043-5.993-2.217-10.921-2.217-10.921
	c-0.083-0.189-0.275-0.308-0.48-0.299c-0.054,0.003-0.108,0.014-0.158,0.033c0,0-0.717,0.288-1.793,0.82l-7.848-17.143
	c-0.083-0.189-0.275-0.308-0.48-0.299c-0.266,0.011-0.477,0.233-0.477,0.498c0,0.075,0.016,0.148,0.048,0.216l7.867,17.186
	c-2.144,1.144-5.193,3.063-7.827,5.883c-1.036-1.688-2.012-3.5-2.895-5.422C356.864,422.807,362.021,409.341,362.539,408.045z
	 M184.086,396.959c0.548,1.337,7.141,17.924,1.055,32.508c-3.199,7.667-7.539,14.007-11.919,18.033
	c-2.19,2.013-4.391,3.445-6.442,4.186c-1.499,0.543-2.908,0.717-4.202,0.503c0.144-0.052,0.288-0.1,0.428-0.162
	c1.9-0.839,3.325-2.473,4.272-4.636c0.948-2.164,1.434-4.867,1.485-7.938c0.043-2.609-0.251-5.494-0.839-8.533
	c0.208,0.022,0.408-0.089,0.499-0.277l12.389-25.248c0.036-0.071,0.055-0.148,0.055-0.227c0-0.267-0.214-0.488-0.48-0.499
	c-0.2-0.008-0.387,0.106-0.471,0.287l-12.208,24.877c-0.82-3.797-2.108-7.814-3.895-11.861c-0.452-1.026-0.958-2.011-1.502-2.959
	C169.423,403.202,182.794,397.492,184.086,396.959z M138.605,396.754c1.247,0.484,15.314,6.135,22.542,18.256
	c-0.017,0.028-0.035,0.055-0.051,0.084l0.152,0.088c0.6,1.02,1.158,2.08,1.649,3.193c3.355,7.6,4.965,15.114,4.867,21.062
	c-0.049,2.974-0.526,5.553-1.401,7.551c-0.874,1.998-2.128,3.404-3.76,4.124c-0.259,0.115-0.526,0.204-0.798,0.281l-15.538-38.399
	c-0.074-0.192-0.26-0.32-0.465-0.32c-0.001,0-0.001,0-0.001,0c-0.274,0-0.499,0.226-0.499,0.499c0,0.067,0.013,0.133,0.04,0.195
	l15.469,38.224c-1.174,0.139-2.441-0.022-3.788-0.478c-2.065-0.7-4.295-2.086-6.525-4.053c-4.462-3.936-8.929-10.19-12.284-17.789
	C131.832,414.818,138.082,398.109,138.605,396.754z"></path>
<path id="color_x5F_5" fill-rule="evenodd" clip-rule="evenodd" fill="#FFD2BB" d="M298.178,265.85
	c0.244-0.013,0.453-0.012,0.628,0.002c2.926,0.229,6.227,3.426,8.704,6.652c2.197,2.863,3.364,5.076,3.691,5.675l-13.621,0.191
	c-0.076,0.001-0.151,0.02-0.218,0.055c0,0-10.385,5.275-22.268,10.409c-5.942,2.567-12.258,5.098-17.824,6.915
	c-5.566,1.818-10.414,2.9-13.253,2.64c-0.102-0.009-0.197-0.03-0.297-0.043c-0.048-0.015-0.098-0.023-0.149-0.023
	c-2.39-0.348-4.271-1.648-5.79-3.547c-1.613-2.018-2.795-4.693-3.64-7.458c-1.585-5.183-1.983-10.534-2.083-12.571l22.33-1.108
	l0.323,5.78c0.014,0.263,0.235,0.471,0.498,0.471c0.062,0,0.124-0.012,0.182-0.035c0,0,9.284-3.633,19.374-7.202
	c5.044-1.784,10.291-3.552,14.669-4.839c2.189-0.644,4.164-1.17,5.78-1.514C296.427,266.042,297.449,265.888,298.178,265.85z
	 M313.428,273.64l22.33,1.108c-0.1,2.031-0.496,7.371-2.077,12.551c-0.845,2.769-2.027,5.449-3.641,7.47
	c-1.416,1.774-3.143,3.037-5.31,3.482c-0.023-0.004-0.047-0.007-0.07-0.007c-0.084-0.003-0.168,0.016-0.242,0.054
	c-0.205,0.034-0.407,0.073-0.619,0.092c-3.548,0.326-10.214-1.461-17.553-4.126c-7.031-2.553-14.699-5.877-21.148-8.827
	c7.207-3.34,12.493-6.01,12.61-6.069l14.928-0.113c0.266,0.003,0.49-0.207,0.505-0.472L313.428,273.64z M269.011,265.852
	c0.892-0.07,2.712,0.215,5.015,0.776c2.304,0.561,5.125,1.388,8.176,2.359c0.037,0.011,0.075,0.018,0.113,0.021
	c-2.587,0.856-5.259,1.776-7.882,2.704c-8.928,3.158-16.007,5.907-17.733,6.58c0.691-1.229,1.933-3.33,3.582-5.546
	C262.773,269.396,266.097,266.08,269.011,265.852z M292.251,207.702c0,0-0.299,8.759-0.297,8.778
	c0.195,2.412-0.794,4.259-2.452,5.597c-1.659,1.337-4.007,2.127-6.426,2.251c-2.42,0.124-4.901-0.417-6.832-1.655
	c-1.93-1.236-3.322-3.146-3.652-5.887v-7.269c0.001-0.097-0.027-0.193-0.08-0.275c2.911,1.14,6.166,1.524,9.471,0.911
	c2.056-0.381,4.155-0.77,6.209-1.151C289.629,208.737,290.979,208.283,292.251,207.702z M267.551,177.596
	c1.088,0.076,2.474,0.671,3.981,1.453c2.01,1.043,4.198,2.347,6.354,2.754c6.619,1.251,11.168,0.636,14.517-0.542
	c2.85-1.002,4.81-2.37,6.427-3.302c0.002,0.01,0.004,0.021,0.006,0.031c-0.008,0.096,0.012,0.192,0.057,0.277
	c0.661,3.438,1.509,7.347,2.173,10.929c0.018,0.099,0.022,0.197,0.039,0.297c-0.13,0.204-0.094,0.474,0.086,0.637
	c1.059,8.42-4.654,16.31-13.182,17.89c-2.054,0.382-4.156,0.772-6.211,1.154c-8.843,1.639-17.312-4.131-18.936-12.894
	c-0.034-0.247-0.247-0.431-0.495-0.431c-0.274,0-0.499,0.226-0.499,0.499c0,0.038,0.005,0.076,0.013,0.113
	c0.007,0.039,0.02,0.075,0.028,0.114c-2.536,0.203-4.931-1.707-5.452-4.523c-0.514-2.77,0.98-5.368,3.351-6.137
	c0.088,0.531,1.144,3.834,1.59,4.411c0.446,0.575,1.105,1.021,1.879,0.923c0.514-0.067,0.904-0.46,1.102-0.908
	s0.281-0.981,0.326-1.591c0.091-1.222,0.003-2.76-0.029-4.324c-0.032-1.563-0.005-3.148,0.274-4.379
	c0.278-1.232,0.758-2.038,1.621-2.341C266.86,177.603,267.189,177.57,267.551,177.596z M300.453,178.442
	c2.332,0.082,4.437,1.92,4.922,4.538c0.51,2.755-0.965,5.337-3.314,6.122c-0.006-0.03-0.006-0.06-0.012-0.09
	c-0.645-3.48-1.45-7.225-2.098-10.559h0.001C300.12,178.44,300.287,178.436,300.453,178.442z"></path>
<path id="color_x5F_4" fill-rule="evenodd" clip-rule="evenodd" fill="#00CEC9" d="M233.175,500.522
	c6.024,4.1,12.036,6.342,18.076,6.453c5.781,0.106,11.566-1.76,17.367-5.675c-0.151,0.529-0.318,1.042-0.526,1.53
	c-1.02,2.385-2.859,4.414-7.173,6.716c-4.236,2.261-9.689,2.649-14.695,1.662c-5.005-0.986-9.543-3.353-11.956-6.425
	C233.256,503.494,232.975,502.074,233.175,500.522z M322.126,500.818c0.128,1.436-0.174,2.759-1.12,3.964
	c-2.413,3.072-6.952,5.439-11.957,6.425c-5.005,0.987-10.459,0.599-14.695-1.662c-4.315-2.302-6.153-4.331-7.173-6.716
	c-0.261-0.61-0.463-1.252-0.639-1.93c5.999,4.194,11.978,6.185,17.956,6.075C310.388,506.867,316.253,504.725,322.126,500.818z
	 M311.926,478.047c-0.441,1.402-0.762,3.7,0.481,6.373c0.535,1.15,1.639,2.571,2.926,4.225c1.287,1.654,2.756,3.52,3.999,5.439
	c1.227,1.894,2.221,3.839,2.624,5.651c-5.887,3.994-11.688,6.134-17.475,6.24c-5.941,0.109-11.892-1.903-17.959-6.295
	c-0.078-0.056-0.17-0.088-0.265-0.094c-0.341-1.673-0.611-3.55-1.085-5.791c-1.102-5.22-1-13.862-0.984-14.885
	C293.292,482.077,302.598,480.968,311.926,478.047z M243.284,477.836c8.459,4.013,17.662,4.765,27.831,0.513
	c-0.023,0.06-0.034,0.123-0.033,0.187c0,0,0.189,9.717-0.981,15.26c-0.5,2.368-0.775,4.33-1.146,6.071
	c-5.973,4.256-11.835,6.216-17.686,6.11c-5.919-0.109-11.852-2.331-17.876-6.504c0.436-1.737,1.379-3.585,2.548-5.387
	c1.242-1.92,2.712-3.785,3.998-5.439c1.287-1.654,2.392-3.075,2.926-4.225C244.174,481.609,243.757,479.211,243.284,477.836z
	 M430.244,173.229c8.642,0,15.635,6.995,15.635,15.636c0,8.642-6.994,15.637-15.635,15.637c-8.642,0-15.636-6.996-15.636-15.637
	C414.608,180.224,421.602,173.229,430.244,173.229z M250.435,174.502c1.619-4.606,3.826-6.484,5.591-7.263
	c1.774-0.782,3.09-0.463,3.09-0.463c0.165,0.038,0.339-0.01,0.46-0.127c0,0,3.766-3.644,9.356-6.449
	c5.589-2.807,12.924-4.746,20.13-1.432c0.372,0.171,0.756,0.072,1.077-0.084c0.321-0.156,0.632-0.387,0.958-0.665
	c0.652-0.557,3.443-3.4,3.976-3.753c0.266-0.177,0.491-0.263,0.602-0.275c0.056-0.006,0.129,0.021,0.164,0.066
	c0.555,0.715,1.2,2.558,1.709,4.836c0.51,2.278,0.93,5.015,1.232,7.661c0.301,2.646,0.484,5.203,0.522,7.116
	c0.019,0.957,0.001,1.754-0.053,2.306c-0.026,0.276-0.065,0.491-0.099,0.614c-0.002,0.007-0.004,0.003-0.006,0.01
	c-0.18,0.009-0.341,0.114-0.421,0.275c-1.795,0.975-3.737,2.42-6.65,3.445c-3.186,1.121-7.521,1.728-14.001,0.503
	c-1.886-0.357-4.035-1.6-6.079-2.661c-2.044-1.061-4.019-2.01-5.754-1.398c-1.285,0.451-1.951,1.671-2.265,3.064
	c-0.315,1.393-0.33,3.031-0.297,4.617c0.033,1.586,0.115,3.122,0.033,4.231c-0.041,0.554-0.129,1.001-0.244,1.26
	c-0.115,0.26-0.179,0.303-0.316,0.32c-0.352,0.045-0.634-0.121-0.962-0.544c-0.329-0.423-1.385-3.872-1.438-4.219
	c0.035-0.07,0.053-0.146,0.053-0.223c0-0.265-0.21-0.485-0.473-0.499c-0.146-0.037-0.301-0.007-0.422,0.082
	c-1.754,0.427-3.139,1.649-3.9,3.244c-0.493-1.082-5.291-12.462-5.426-12.913c-0.069-0.227-0.116-0.413-0.139-0.537
	C250.427,174.561,250.441,174.491,250.435,174.502l-0.025,0.072C250.425,174.529,250.432,174.507,250.435,174.502z M385.405,153.329
	c8.642,0,15.635,6.994,15.635,15.635c0,8.642-6.994,15.637-15.635,15.637c-8.642,0-15.637-6.996-15.637-15.637
	C369.768,160.322,376.763,153.329,385.405,153.329z M471.293,145.564c8.642,0,15.638,6.997,15.638,15.637
	c0,8.642-6.997,15.636-15.638,15.636c-8.642,0-15.635-6.995-15.635-15.636C455.658,152.56,462.651,145.564,471.293,145.564z
	 M426.057,126.893c8.642,0,15.636,6.996,15.636,15.637c0,8.642-6.995,15.635-15.636,15.635s-15.635-6.994-15.635-15.635
	C410.422,133.889,417.415,126.893,426.057,126.893z M378.976,110.721c8.642,0,15.635,6.997,15.635,15.638
	s-6.994,15.635-15.635,15.635c-8.642,0-15.636-6.994-15.636-15.635S370.334,110.721,378.976,110.721z M417.965,136.36
	c0.136-0.123,0.71-0.242,0.788-0.232c0.31,0.04,0.632,0.227,0.868,0.655c0.088,0.16,0.256,0.26,0.437,0.26
	c0.183,0,0.351-0.1,0.439-0.26c0.471-0.857,1.294-0.751,1.656-0.423c0.182,0.165,0.293,0.425,0.293,0.804s-0.124,0.855-0.394,1.346
	c-0.003,0.004-0.004,0.009-0.006,0.013c-0.29,0.565-1.19,1.251-1.987,1.778c-0.797-0.526-1.695-1.213-1.986-1.778
	c-0.002-0.004-0.005-0.009-0.008-0.013c-0.27-0.491-0.392-0.968-0.392-1.346S417.784,136.525,417.965,136.36z M430.795,136.36
	c0.136-0.123,0.709-0.242,0.787-0.232c0.31,0.04,0.634,0.227,0.87,0.655c0.087,0.16,0.256,0.26,0.437,0.26s0.351-0.1,0.438-0.26
	c0.471-0.857,1.294-0.751,1.656-0.423c0.182,0.165,0.293,0.425,0.293,0.804s-0.124,0.855-0.395,1.346
	c-0.002,0.004-0.005,0.009-0.008,0.013c-0.29,0.565-1.188,1.251-1.986,1.778c-0.796-0.526-1.695-1.213-1.986-1.778
	c-0.002-0.004-0.004-0.009-0.006-0.013c-0.27-0.491-0.395-0.968-0.395-1.346S430.614,136.525,430.795,136.36z M461.694,96.694
	c8.642,0,15.635,6.996,15.635,15.637s-6.994,15.635-15.635,15.635s-15.635-6.994-15.635-15.635S453.052,96.694,461.694,96.694z
	 M416.707,81.768c8.642,0,15.637,6.995,15.637,15.635c0,8.642-6.996,15.638-15.637,15.638c-8.642,0-15.635-6.997-15.635-15.638
	C401.072,88.763,408.065,81.768,416.707,81.768z M410.154,101.247h13.022c-0.142,1.667-0.908,2.863-2.03,3.693
	c-1.233,0.913-2.911,1.359-4.587,1.325c-1.677-0.035-3.34-0.552-4.536-1.483C410.939,103.938,410.231,102.78,410.154,101.247z"></path>
<path id="color_x5F_3" fill-rule="evenodd" clip-rule="evenodd" fill="#E84393" d="M242.053,348.341
	c0.018,0.007,0.036,0.012,0.054,0.017c25.021,7.235,51.349,8.924,79.796,1.278c0.003-0.001,0.006-0.002,0.01-0.002l-9.988,127.371
	c-9.4,2.983-18.633,4.066-27.641,0.856l-0.09-103.365c0-0.273-0.223-0.497-0.495-0.499l-6.59-0.043
	c-0.268-0.002-0.492,0.212-0.503,0.48L272.31,476.72c-11.165,5.201-20.949,4.254-30.035-0.507c0-0.006,0-0.013,0-0.019
	l-0.222-127.838V348.341z"></path>
<path id="color_x5F_2" fill-rule="evenodd" clip-rule="evenodd" fill="#FBC02D" d="M283.911,285.994
	c6.609,3.038,14.646,6.541,21.994,9.21c7.384,2.681,14.012,4.544,17.986,4.18c0.078-0.007,0.151-0.026,0.229-0.035l-2.128,49.28
	l-0.004,0.058c-0.109-0.045-0.231-0.051-0.344-0.015c-28.263,7.597-54.378,5.921-79.259-1.274c-0.048-0.014-0.098-0.021-0.149-0.021
	c-0.049,0-0.097,0.007-0.144,0.021l1.963-48.01c3.18,0.252,7.982-0.879,13.527-2.688c5.614-1.833,11.952-4.375,17.909-6.949
	C278.44,288.476,281.291,287.199,283.911,285.994z M292.96,216.945l34.063,8.015c0.154,0.147,2.125,2.06,4.278,6.387
	c2.24,4.503,4.593,11.532,4.99,21.62c0.401,10.179-0.165,20.049-0.209,20.798l-25.621-1.272l1.134-21.022
	c0.001-0.014,0.002-0.029,0.002-0.044c0-0.275-0.226-0.499-0.499-0.499c-0.272,0-0.495,0.22-0.499,0.491l-1.161,21.521
	c-0.001,0.009-0.001,0.018-0.001,0.027c0,0.265,0.21,0.486,0.474,0.499l2.519,0.125l-0.233,4.202
	c-0.62-1.095-2.027-3.465-3.893-5.895c-2.537-3.304-5.867-6.763-9.419-7.04c-0.921-0.072-2.222,0.115-3.878,0.467
	c-1.655,0.354-3.648,0.882-5.852,1.53c-2.013,0.591-4.213,1.29-6.478,2.037c0.111-0.095,0.176-0.235,0.176-0.382
	c0-0.216-0.14-0.408-0.346-0.475c-3.065-0.974-5.902-1.807-8.242-2.377c-2.341-0.571-4.156-0.892-5.332-0.8
	c-3.564,0.279-6.902,3.866-9.452,7.293c-1.82,2.446-3.186,4.804-3.839,5.984l-0.254-4.544l2.519-0.125
	c0.264-0.013,0.474-0.235,0.474-0.499c0-0.009,0-0.018-0.001-0.027l-1.161-21.521c-0.004-0.272-0.229-0.491-0.499-0.491
	c-0.274,0-0.499,0.226-0.499,0.499c0,0.015,0.001,0.03,0.002,0.044l1.134,21.022l-25.621,1.272
	c-0.044-0.749-0.61-10.619-0.209-20.798c0.397-10.089,2.694-16.939,4.876-21.259c1.777-3.517,3.389-5.269,3.951-5.823
	c0.07,0.011,31.278-8.786,31.278-8.786c0.409,2.922,1.977,5.072,4.073,6.416c2.145,1.376,4.822,1.944,7.423,1.811
	c2.601-0.134,5.134-0.966,7-2.47C291.866,221.453,292.992,219.425,292.96,216.945z M424.881,65.226
	c10.435,0,19.832,5.08,24.571,11.882c0.121,0.174,0.339,0.253,0.542,0.197c8.167-2.27,18.748-0.323,26.738,6.156
	c7.99,6.475,11.801,16.19,10.907,24.338c-0.024,0.218,0.099,0.426,0.3,0.512c7.767,3.333,14.564,11.386,16.373,21.299
	c1.811,9.914-1.727,19.722-7.841,25.414c-0.162,0.151-0.205,0.394-0.105,0.591c3.726,7.364,3.582,17.747-1.631,26.468
	c-5.212,8.721-14.46,14.046-22.939,14.611c-0.215,0.014-0.398,0.166-0.45,0.375c-2.045,7.953-9.069,15.828-18.873,19.277
	c-9.806,3.448-20.439,1.779-27.305-3.05c-0.173-0.122-0.404-0.122-0.576,0c-6.867,4.83-17.499,6.498-27.304,3.05
	c-9.805-3.449-16.832-11.323-18.876-19.277c-0.053-0.209-0.236-0.361-0.45-0.375c-8.48-0.565-17.726-5.89-22.937-14.611
	c-5.212-8.721-5.358-19.104-1.631-26.468c0.101-0.198,0.057-0.44-0.105-0.591c-6.113-5.692-9.653-15.5-7.843-25.414
	c1.81-9.913,8.609-17.966,16.375-21.299c0.201-0.086,0.323-0.296,0.299-0.512c-0.894-8.147,2.916-17.862,10.907-24.338
	c7.988-6.478,18.57-8.426,26.737-6.156c0.205,0.057,0.423-0.022,0.544-0.197C405.046,70.306,414.444,65.226,424.881,65.226z
	 M430.244,172.231c-9.182,0-16.635,7.453-16.635,16.635c0,9.181,7.453,16.636,16.635,16.636c9.181,0,16.634-7.455,16.634-16.636
	C446.878,179.684,439.425,172.231,430.244,172.231z M385.405,152.33c-9.181,0-16.636,7.453-16.636,16.634
	c0,9.181,7.455,16.636,16.636,16.636c9.181,0,16.634-7.455,16.634-16.636C402.039,159.783,394.586,152.33,385.405,152.33z
	 M471.293,144.565c-9.181,0-16.634,7.455-16.634,16.636c0,9.182,7.453,16.635,16.634,16.635c9.182,0,16.637-7.453,16.637-16.635
	C487.93,152.02,480.475,144.565,471.293,144.565z M317.516,166.445c1.09,0,1.977,0.902,1.977,2.041c0,0.001,0,0.001,0,0.001
	c0,0.275,0.226,0.499,0.499,0.499c0.052,0,0.104-0.008,0.154-0.024c1.088-0.353,2.223,0.212,2.56,1.244
	c0.336,1.033-0.25,2.154-1.336,2.507c-0.206,0.067-0.346,0.259-0.346,0.474c0,0.106,0.034,0.209,0.096,0.294
	c0.671,0.923,0.484,2.172-0.397,2.812c-0.882,0.639-2.131,0.428-2.803-0.493c-0.094-0.129-0.245-0.206-0.405-0.206
	c-0.159,0-0.31,0.077-0.404,0.206c-0.671,0.922-1.923,1.132-2.804,0.493c-0.881-0.639-1.069-1.889-0.398-2.812
	c0.062-0.085,0.096-0.188,0.096-0.294c0-0.216-0.14-0.408-0.346-0.474c-1.087-0.353-1.67-1.475-1.334-2.507
	c0.337-1.034,1.47-1.597,2.558-1.244c0.049,0.016,0.101,0.024,0.154,0.024c0.274,0,0.499-0.225,0.499-0.499c0,0,0,0,0-0.001
	C315.538,167.347,316.427,166.445,317.516,166.445z M335.371,154.647c1.359,0,2.466,1.126,2.466,2.542v0.001
	c0,0.274,0.226,0.499,0.499,0.499c0.053,0,0.105-0.008,0.154-0.025c1.351-0.437,2.769,0.266,3.188,1.555
	c0.419,1.288-0.312,2.688-1.662,3.125c-0.206,0.067-0.346,0.26-0.346,0.475c0,0.105,0.034,0.208,0.096,0.294
	c0.834,1.146,0.603,2.706-0.495,3.503c-1.101,0.798-2.661,0.534-3.496-0.612c-0.094-0.129-0.245-0.206-0.405-0.206
	c-0.159,0-0.31,0.077-0.404,0.206c-0.834,1.146-2.396,1.409-3.496,0.612c-1.1-0.797-1.329-2.357-0.495-3.503
	c0.062-0.086,0.095-0.189,0.095-0.294c0-0.216-0.14-0.408-0.345-0.475c-1.35-0.437-2.084-1.837-1.664-3.125
	c0.42-1.289,1.838-1.993,3.189-1.555c0.05,0.016,0.101,0.024,0.153,0.024c0.274,0,0.499-0.226,0.499-0.499l0,0
	C332.904,155.773,334.012,154.647,335.371,154.647z M426.057,125.895c-9.181,0-16.634,7.455-16.634,16.636
	c0,9.182,7.453,16.634,16.634,16.634c9.182,0,16.635-7.452,16.635-16.634C442.692,133.35,435.239,125.895,426.057,125.895z
	 M378.976,109.722c-9.182,0-16.635,7.455-16.635,16.637c0,9.181,7.453,16.634,16.635,16.634c9.181,0,16.634-7.453,16.634-16.634
	C395.61,117.177,388.157,109.722,378.976,109.722z M461.694,95.695c-9.181,0-16.634,7.454-16.634,16.636
	c0,9.181,7.453,16.634,16.634,16.634c9.181,0,16.634-7.453,16.634-16.634C478.327,103.149,470.874,95.695,461.694,95.695z
	 M416.707,80.769c-9.181,0-16.634,7.453-16.634,16.634c0,9.182,7.453,16.637,16.634,16.637c9.181,0,16.636-7.455,16.636-16.637
	C433.343,88.222,425.888,80.769,416.707,80.769z"></path>
<path id="color_x5F_1" fill="#0984E3" d="M424.881,63.728c-10.66,0-20.194,5.038-25.36,12.041
	c-8.599-2.157-19.258-0.107-27.438,6.526c-8.165,6.618-12.119,16.405-11.431,24.983c-8.015,3.696-14.823,11.894-16.679,22.061
	c-1.857,10.162,1.637,20.121,7.859,26.249c-3.679,7.828-3.43,18.337,1.904,27.262c5.344,8.943,14.641,14.394,23.48,15.211
	c2.385,8.291,9.563,16.175,19.574,19.696c10.026,3.526,20.766,1.935,28.091-2.939c7.322,4.873,18.061,6.465,28.087,2.939
	c0,0,0.001,0,0.002,0c10.01-3.521,17.186-11.405,19.571-19.696c8.839-0.817,18.136-6.267,23.48-15.211
	c5.336-8.925,5.582-19.435,1.904-27.262c6.223-6.129,9.718-16.088,7.862-26.249c-1.856-10.168-8.664-18.366-16.679-22.061
	c0.689-8.578-3.266-18.365-11.431-24.983c-8.18-6.633-18.839-8.683-27.438-6.526C445.073,68.766,435.539,63.728,424.881,63.728z
	 M424.881,65.725c10.274,0,19.532,5.024,24.162,11.669c0.242,0.347,0.679,0.503,1.087,0.391c7.989-2.222,18.429-0.312,26.288,6.061
	c0,0.001,0,0.002,0,0.002c7.861,6.371,11.598,15.943,10.725,23.895c-0.047,0.435,0.197,0.853,0.599,1.026
	c7.596,3.26,14.302,11.187,16.081,20.93c1.779,9.744-1.718,19.396-7.693,24.959c-0.324,0.303-0.409,0.786-0.209,1.182
	c3.64,7.192,3.511,17.414-1.615,25.989c-5.124,8.577-14.246,13.816-22.543,14.37c-0.43,0.028-0.794,0.331-0.901,0.747
	c-1.997,7.764-8.905,15.534-18.556,18.93c-9.653,3.394-20.14,1.733-26.853-2.988c-0.345-0.242-0.805-0.242-1.15,0
	c-6.714,4.722-17.199,6.382-26.852,2.988c-9.651-3.396-16.562-11.166-18.558-18.93c-0.108-0.417-0.472-0.719-0.902-0.747
	c-8.297-0.553-17.419-5.793-22.543-14.37c-5.125-8.575-5.253-18.796-1.613-25.989c0.2-0.396,0.114-0.88-0.211-1.182
	c-5.975-5.563-9.47-15.215-7.691-24.959c1.779-9.742,8.485-17.67,16.081-20.93c0.403-0.173,0.646-0.59,0.599-1.026
	c-0.873-7.952,2.864-17.524,10.725-23.895c0,0,0-0.001,0-0.002c7.859-6.372,18.299-8.283,26.288-6.061
	c0.408,0.113,0.845-0.044,1.087-0.391C405.346,70.749,414.605,65.725,424.881,65.725z M416.707,80.27
	c-9.452,0-17.133,7.683-17.133,17.133c0,9.452,7.682,17.136,17.133,17.136c9.452,0,17.135-7.685,17.135-17.136
	C433.842,87.953,426.159,80.27,416.707,80.27z M416.707,82.267c8.372,0,15.138,6.765,15.138,15.136
	c0,8.372-6.766,15.139-15.138,15.139s-15.136-6.767-15.136-15.139C401.571,89.032,408.335,82.267,416.707,82.267z M411.639,88.786
	c-0.3,0.006-0.58,0.147-0.765,0.382l-2.692,3.436c-0.138,0.176-0.214,0.393-0.214,0.616c0,0.548,0.451,1,1,1
	c0.307,0,0.597-0.142,0.786-0.384l1.844-2.352l1.664,2.479c0.184,0.284,0.499,0.454,0.837,0.454c0.548,0,0.999-0.45,0.999-0.999
	c0-0.204-0.062-0.403-0.178-0.569l-2.431-3.621C412.3,88.945,411.979,88.779,411.639,88.786z M422.419,88.786
	c-0.3,0.005-0.582,0.146-0.767,0.382l-2.69,3.436c-0.138,0.176-0.214,0.393-0.214,0.616c0,0.548,0.451,1,1,1
	c0.307,0,0.597-0.142,0.786-0.384l1.842-2.352l1.666,2.479c0.184,0.284,0.499,0.454,0.837,0.454c0.548,0,0.999-0.45,0.999-0.999
	c0-0.204-0.062-0.403-0.178-0.569l-2.431-3.621C423.08,88.945,422.759,88.779,422.419,88.786z M461.694,95.196
	c-9.452,0-17.133,7.684-17.133,17.135c0,9.451,7.682,17.133,17.133,17.133s17.133-7.683,17.133-17.133
	C478.827,102.88,471.145,95.196,461.694,95.196z M461.694,97.193c8.372,0,15.136,6.766,15.136,15.138
	c0,8.372-6.764,15.136-15.136,15.136c-8.372,0-15.136-6.764-15.136-15.136C446.558,103.959,453.322,97.193,461.694,97.193z
	 M409.667,99.734c-0.241-0.004-0.474,0.078-0.659,0.233c-0.003,0.002-0.007,0.005-0.01,0.008c-0.018,0.015-0.036,0.032-0.053,0.049
	c-0.254,0.239-0.364,0.595-0.291,0.936c0.003,2.124,0.997,3.873,2.449,5.004c1.509,1.175,3.465,1.758,5.424,1.799
	c1.96,0.04,3.948-0.461,5.511-1.618c1.511-1.118,2.568-2.906,2.653-5.162c0.092-0.378-0.045-0.776-0.35-1.018
	c-0.218-0.18-0.502-0.259-0.782-0.217h-13.756C409.758,99.74,409.712,99.736,409.667,99.734z M410.706,101.746h11.902
	c-0.229,1.241-0.861,2.13-1.758,2.794c-1.123,0.831-2.699,1.258-4.282,1.226c-1.582-0.033-3.148-0.528-4.239-1.377
	C411.469,103.719,410.888,102.87,410.706,101.746z M454.636,103.24c-0.536,0.017-0.968,0.462-0.968,0.999
	c0,0.351,0.185,0.676,0.485,0.857l2.616,1.617l-2.337,1.566c-0.283,0.184-0.454,0.5-0.454,0.838c0,0.547,0.451,0.999,0.999,0.999
	c0.204,0,0.402-0.062,0.57-0.179l3.621-2.43c0.276-0.186,0.442-0.497,0.442-0.83c0-0.346-0.18-0.668-0.474-0.85l-3.93-2.431
	C455.036,103.288,454.837,103.234,454.636,103.24z M469.287,103.24c-0.19,0-0.378,0.054-0.538,0.156l-3.932,2.431
	c-0.295,0.182-0.474,0.504-0.474,0.85c0,0.333,0.167,0.644,0.443,0.83l3.623,2.43c0.17,0.124,0.376,0.191,0.586,0.191
	c0.547,0,0.999-0.451,0.999-0.999c0-0.346-0.18-0.668-0.473-0.85l-2.335-1.566l2.614-1.617c0.301-0.181,0.484-0.506,0.484-0.857
	C470.283,103.693,469.835,103.242,469.287,103.24z M378.976,109.223c-9.452,0-17.134,7.685-17.134,17.136
	c0,9.451,7.683,17.133,17.134,17.133c9.451,0,17.133-7.683,17.133-17.133C396.109,116.908,388.426,109.223,378.976,109.223z
	 M378.976,111.22c8.371,0,15.136,6.767,15.136,15.139c0,8.371-6.765,15.136-15.136,15.136c-8.372,0-15.137-6.765-15.137-15.136
	C363.839,117.987,370.604,111.22,378.976,111.22z M461.514,114.677c-1.96,0.041-3.915,0.622-5.424,1.797
	c-1.51,1.175-2.537,3.014-2.456,5.254c0.018,0.534,0.463,0.965,0.999,0.965c0.548,0,0.999-0.451,0.999-1c0-0.012,0-0.025,0-0.037
	c-0.059-1.624,0.594-2.757,1.685-3.606s2.657-1.342,4.239-1.375c1.583-0.033,3.159,0.395,4.282,1.226
	c1.124,0.831,1.844,2.005,1.858,3.798c0,0.002,0,0.003,0,0.005c0,0.548,0.45,0.999,0.999,0.999c0.547,0,0.999-0.45,0.999-0.999
	c0-0.006,0-0.013,0-0.019c-0.018-2.365-1.104-4.234-2.667-5.389C465.462,115.139,463.473,114.637,461.514,114.677z M373.968,118.545
	c-0.548,0.007-0.993,0.464-0.985,1.012v1.897c0,0.004-0.001,0.009-0.001,0.014c0,0.547,0.451,0.999,1,0.999
	c0.547,0,0.999-0.451,0.999-0.999c0-0.005,0-0.01,0-0.014v-1.897c0-0.004,0-0.009,0-0.013c0-0.548-0.451-1-0.999-1
	C373.977,118.544,373.972,118.544,373.968,118.545z M383.948,118.545c-0.547,0.007-0.993,0.464-0.985,1.012v1.897
	c0,0.004,0,0.009,0,0.014c0,0.547,0.451,0.999,0.999,0.999c0.547,0,0.999-0.451,0.999-0.999c0-0.005,0-0.01,0-0.014v-1.897
	c0-0.004,0-0.009,0-0.013c0-0.548-0.451-1-0.999-1C383.957,118.544,383.953,118.544,383.948,118.545z M426.057,125.395
	c-9.451,0-17.133,7.685-17.133,17.135c0,9.452,7.683,17.133,17.133,17.133c9.452,0,17.134-7.682,17.134-17.133
	C443.191,133.08,435.508,125.395,426.057,125.395z M426.057,127.393c8.372,0,15.137,6.766,15.137,15.138
	c0,8.372-6.765,15.136-15.137,15.136c-8.371,0-15.136-6.764-15.136-15.136C410.921,134.159,417.686,127.393,426.057,127.393z
	 M249.395,127.645c-0.538,0.013-0.974,0.459-0.974,0.999c0,0.176,0.047,0.349,0.135,0.501l7.622,13.576
	c0.174,0.323,0.512,0.525,0.88,0.525c0.548,0,0.999-0.45,0.999-0.999c0-0.178-0.047-0.352-0.137-0.504l-7.621-13.578
	C250.119,127.836,249.77,127.635,249.395,127.645z M371.935,128.688c-0.007,0-0.015,0-0.022,0c-0.539,0-0.987,0.437-0.999,0.977
	c-0.081,2.239,0.947,4.079,2.456,5.254c1.51,1.175,3.466,1.756,5.425,1.797c1.96,0.041,3.948-0.461,5.51-1.617
	c1.563-1.157,2.65-3.025,2.667-5.39c0.001-0.006,0.001-0.013,0.001-0.019c0-0.548-0.451-0.999-0.999-0.999c-0.548,0-1,0.45-1,0.999
	c0,0.001,0,0.002,0,0.004c-0.013,1.793-0.734,2.969-1.857,3.799c-1.123,0.831-2.699,1.258-4.282,1.226
	c-1.583-0.033-3.148-0.526-4.239-1.375c-1.091-0.849-1.744-1.981-1.686-3.605c0.001-0.017,0.002-0.034,0.002-0.051
	C372.914,129.147,372.475,128.699,371.935,128.688z M418.467,134.648c-0.558,0.024-1.097,0.229-1.508,0.602c0,0.001,0,0.001,0,0.002
	c-0.548,0.499-0.782,1.22-0.782,1.912c0,0.688,0.207,1.383,0.573,2.055c0.621,1.2,1.809,1.999,2.792,2.594
	c0.318,0.194,0.717,0.195,1.036,0.002c0.984-0.595,2.17-1.396,2.792-2.596c0.367-0.671,0.575-1.367,0.575-2.055
	c0-0.692-0.233-1.415-0.782-1.914c-0.814-0.739-2.121-0.805-3.102-0.144c-0.319-0.216-0.671-0.363-1.032-0.423
	C418.841,134.651,418.653,134.639,418.467,134.648z M431.296,134.648c-0.558,0.024-1.098,0.229-1.509,0.602c0,0.001,0,0.001,0,0.002
	c-0.549,0.499-0.783,1.22-0.783,1.912c0,0.689,0.21,1.385,0.578,2.059c0.621,1.197,1.808,1.995,2.79,2.59
	c0.317,0.194,0.717,0.195,1.036,0.002c0.983-0.595,2.168-1.396,2.79-2.594c0.367-0.671,0.577-1.368,0.577-2.057
	c0-0.692-0.236-1.415-0.784-1.914c-0.815-0.739-2.121-0.805-3.102-0.144c-0.32-0.216-0.669-0.363-1.03-0.423
	C431.672,134.651,431.483,134.639,431.296,134.648z M418.66,136.608c0.165,0.011,0.357,0.111,0.524,0.415
	c0.176,0.319,0.511,0.517,0.875,0.517c0.364,0,0.7-0.199,0.875-0.517c0.337-0.61,0.768-0.398,0.884-0.293
	c0.059,0.054,0.129,0.16,0.129,0.433s-0.095,0.677-0.332,1.107c-0.005,0.008-0.009,0.016-0.014,0.025
	c-0.172,0.336-0.901,0.881-1.543,1.355c-0.64-0.474-1.367-1.019-1.541-1.355c-0.003-0.009-0.007-0.017-0.011-0.025
	c-0.237-0.429-0.332-0.833-0.332-1.107c0-0.273,0.07-0.38,0.129-0.433v-0.001C418.361,136.677,418.497,136.598,418.66,136.608z
	 M431.49,136.608c0.164,0.011,0.357,0.111,0.524,0.415c0.176,0.319,0.511,0.517,0.875,0.517s0.699-0.199,0.875-0.517
	c0.336-0.61,0.768-0.398,0.884-0.293c0.059,0.054,0.129,0.16,0.129,0.433s-0.098,0.677-0.334,1.107
	c-0.005,0.008-0.009,0.016-0.014,0.025c-0.172,0.336-0.9,0.881-1.541,1.355c-0.641-0.474-1.368-1.019-1.541-1.355
	c-0.004-0.009-0.009-0.017-0.014-0.025c-0.236-0.429-0.332-0.833-0.332-1.107c0-0.273,0.071-0.38,0.129-0.433
	C431.189,136.679,431.325,136.598,431.49,136.608z M236.403,141.179c-0.543,0.006-0.987,0.454-0.987,0.999
	c0,0.376,0.213,0.721,0.548,0.891l13.821,7.167c0.142,0.074,0.3,0.113,0.46,0.113c0.548,0,0.999-0.451,0.999-1
	c0-0.373-0.208-0.715-0.538-0.886l-13.823-7.167C236.736,141.217,236.571,141.177,236.403,141.179z M471.293,144.066
	c-9.451,0-17.133,7.685-17.133,17.135c0,9.452,7.683,17.134,17.133,17.134c9.452,0,17.136-7.683,17.136-17.134
	C488.429,151.75,480.745,144.066,471.293,144.066z M419.016,144.86c-0.007,0-0.014,0-0.021,0c-0.54,0-0.988,0.437-0.999,0.978
	c-0.081,2.239,0.946,4.078,2.456,5.253c1.509,1.176,3.466,1.756,5.425,1.797c1.96,0.041,3.947-0.46,5.51-1.617
	c1.563-1.156,2.649-3.025,2.667-5.389c0-0.007,0-0.013,0-0.02c0-0.547-0.45-0.999-0.999-0.999c-0.547,0-0.999,0.451-0.999,0.999
	c0,0.002,0,0.004,0,0.006c-0.013,1.793-0.734,2.967-1.857,3.798c-1.124,0.83-2.7,1.257-4.282,1.225
	c-1.583-0.033-3.148-0.526-4.24-1.375c-1.091-0.849-1.744-1.981-1.685-3.605c0.001-0.017,0.001-0.034,0.001-0.051
	C419.995,145.318,419.557,144.871,419.016,144.86z M471.293,146.063c8.372,0,15.139,6.767,15.139,15.138
	c0,8.372-6.767,15.137-15.139,15.137c-8.371,0-15.136-6.765-15.136-15.137C456.157,152.83,462.922,146.063,471.293,146.063z
	 M385.405,151.83c-9.452,0-17.135,7.682-17.135,17.133c0,9.452,7.684,17.135,17.135,17.135c9.452,0,17.133-7.684,17.133-17.135
	C402.538,159.512,394.856,151.83,385.405,151.83z M295.51,152.5c-0.507,0.056-0.892,0.27-1.263,0.516
	c-0.745,0.493-3.576,3.393-4.124,3.862c-0.27,0.231-0.501,0.389-0.622,0.449c-7.697-3.449-15.475-1.364-21.24,1.531
	c-5.433,2.728-8.905,5.974-9.376,6.418c-0.605-0.072-1.802-0.14-3.463,0.592c-2.177,0.961-4.704,3.266-6.425,8.211
	c-0.163,0.467-0.067,0.618-0.027,0.835c0.039,0.217,0.101,0.442,0.179,0.7c0.156,0.515,5.733,13.624,5.862,13.905
	c-0.183,0.896-0.203,1.847-0.025,2.804c0.632,3.411,3.547,5.864,6.771,5.75c1.4,5.018,4.915,8.977,9.39,11.116
	c-0.035,0.106-0.053,0.217-0.051,0.328v6.177c0,0-30.66,8.556-30.758,8.553c-0.26-0.01-0.513,0.081-0.706,0.255
	c0,0-2.286,2.02-4.564,6.532c-2.279,4.512-4.63,11.585-5.035,21.876c-0.421,10.669,0.228,21.439,0.228,21.439
	c0.016,0.255,0.129,0.494,0.317,0.669c0.115,2.219,0.526,7.484,2.133,12.74c0.881,2.879,2.111,5.713,3.903,7.953
	c1.522,1.903,3.501,3.369,5.933,3.943l-1.99,48.652c-0.001,0.013-0.001,0.027,0,0.041l0.222,127.85c0,0.041,0.002,0.081,0.006,0.122
	c-0.088,0.441,0.134,0.891,0.538,1.09c0.069,0.037,0.139,0.068,0.207,0.104c0.162,0.251,1.645,2.694-0.021,6.275
	c-0.394,0.845-1.466,2.288-2.749,3.936c-1.283,1.649-2.78,3.547-4.075,5.546c-1.295,2-2.4,4.1-2.855,6.229
	c-0.453,2.128-0.195,4.353,1.26,6.206c2.74,3.491,7.565,5.93,12.843,6.971c5.28,1.04,11.049,0.668,15.69-1.809
	c4.486-2.393,6.687-4.737,7.847-7.45c0.379-0.886,0.645-1.797,0.866-2.745c0.174-0.23,0.24-0.525,0.18-0.807
	c0.352-1.731,0.596-3.606,1.052-5.761c1.249-5.914,1.012-15.6,1.012-15.6c0.001-0.083-0.008-0.166-0.027-0.246
	c0.224-0.102,0.445-0.19,0.671-0.297c0.334-0.159,0.553-0.49,0.569-0.86l4.272-101.643l4.635,0.029l0.088,102.581
	c-0.063,0.137-0.094,0.286-0.092,0.435c0,0-0.236,9.686,1.013,15.6c0.783,3.706,0.937,6.601,2.096,9.313
	c1.16,2.713,3.361,5.057,7.847,7.45c4.641,2.477,10.411,2.849,15.69,1.809c5.279-1.041,10.104-3.48,12.843-6.971
	c1.266-1.613,1.625-3.506,1.399-5.372c0.251-0.431,0.142-0.988-0.254-1.292v-0.002c-0.506-1.971-1.537-3.913-2.739-5.769
	c-1.295-2-2.793-3.897-4.076-5.546c-1.282-1.648-2.355-3.091-2.749-3.936c-1.756-3.777,0.032-6.371,0.032-6.371
	c0.111-0.165,0.17-0.359,0.17-0.557c0-0.341-0.174-0.658-0.46-0.841l9.978-127.282c0.001-0.012,0.001-0.023,0.002-0.035
	l2.122-49.138c2.28-0.627,4.149-2.043,5.6-3.858c1.794-2.245,3.024-5.086,3.904-7.967c1.602-5.251,2.013-10.502,2.127-12.719
	c0.188-0.175,0.301-0.415,0.317-0.671c0,0,0.648-10.77,0.228-21.439c-0.405-10.294-2.813-17.544-5.144-22.229
	c-2.331-4.685-4.654-6.875-4.654-6.875c-0.079-0.075-0.169-0.137-0.268-0.183c-0.077-0.042-34.238-8.094-34.238-8.094l0.267-7.854
	c0.003-0.056,0.001-0.111-0.005-0.166c6.008-3.364,9.678-10.008,8.998-17.061c2.958-1.109,4.726-4.388,4.105-7.741
	c-0.598-3.227-3.237-5.597-6.248-5.751c0.07-0.259,0.11-0.525,0.141-0.837c0.063-0.654,0.078-1.488,0.058-2.479
	c-0.039-1.983-0.225-4.571-0.53-7.257s-0.731-5.462-1.258-7.819c-0.527-2.356-1.066-4.242-1.986-5.427
	C296.678,152.692,296.017,152.443,295.51,152.5z M463.933,152.649c-0.006,0-0.011,0-0.017,0c-0.548,0-0.999,0.45-0.999,0.999
	c0,0.265,0.105,0.519,0.293,0.706l1.367,1.412l-1.373,1.418c-0.198,0.189-0.31,0.449-0.31,0.723c0,0.547,0.45,0.999,0.999,0.999
	c0.284,0,0.555-0.122,0.744-0.333l1.328-1.371l1.328,1.371c0.189,0.2,0.451,0.313,0.726,0.313c0.548,0,1-0.45,1-0.999
	c0-0.264-0.105-0.516-0.29-0.703l-1.373-1.418l1.367-1.412c0.187-0.187,0.292-0.44,0.292-0.705c0-0.548-0.451-0.999-0.999-0.999
	c-0.016,0-0.031,0-0.046,0.001c-0.26,0.011-0.504,0.123-0.682,0.312l-1.321,1.366l-1.322-1.366
	C464.46,152.767,464.203,152.653,463.933,152.649z M475.665,152.649c-0.006,0-0.011,0-0.017,0c-0.548,0-0.999,0.45-0.999,0.999
	c0,0.265,0.105,0.519,0.293,0.706l1.369,1.414l-1.371,1.416c-0.198,0.189-0.31,0.449-0.31,0.723c0,0.547,0.45,0.999,0.999,0.999
	c0.284,0,0.555-0.122,0.744-0.333l1.326-1.369l1.326,1.369c0.189,0.2,0.452,0.313,0.727,0.313c0.547,0,0.999-0.45,0.999-0.999
	c0-0.264-0.105-0.516-0.29-0.703l-1.371-1.416l1.369-1.414c0.187-0.187,0.292-0.44,0.292-0.705c0-0.548-0.451-0.999-0.999-0.999
	c-0.016,0-0.031,0-0.046,0.001c-0.26,0.011-0.504,0.123-0.682,0.312l-1.325,1.368l-1.322-1.368
	C476.192,152.767,475.934,152.653,475.665,152.649z M335.371,153.149c-1.813,0-3.275,1.278-3.749,2.961
	c-1.749-0.072-3.421,0.921-3.983,2.645c-0.561,1.723,0.208,3.509,1.664,4.478c-0.607,1.639-0.177,3.534,1.291,4.597
	c1.468,1.065,3.404,0.887,4.777-0.199c1.373,1.085,3.309,1.262,4.778,0.199c1.466-1.064,1.898-2.958,1.291-4.597
	c1.456-0.969,2.224-2.755,1.664-4.478c-0.561-1.724-2.234-2.717-3.984-2.645C338.647,154.427,337.184,153.149,335.371,153.149z
	 M385.405,153.828c8.372,0,15.136,6.764,15.136,15.136c0,8.372-6.764,15.138-15.136,15.138c-8.372,0-15.138-6.766-15.138-15.138
	C370.267,160.592,377.033,153.828,385.405,153.828z M295.526,154.59c0.434,0.648,1.056,2.27,1.535,4.411
	c0.504,2.252,0.923,4.976,1.223,7.609c0.3,2.632,0.481,5.178,0.518,7.069c0.019,0.945-0.001,1.732-0.051,2.249
	c-0.013,0.136-0.028,0.201-0.043,0.277c-0.142,0.074-0.265,0.182-0.357,0.314c-1.811,0.996-3.67,2.352-6.445,3.328
	c-3.105,1.093-7.332,1.697-13.741,0.486c-1.751-0.331-3.881-1.545-5.942-2.614c-2.061-1.07-4.127-2.138-6.151-1.426
	c-1.496,0.526-2.252,1.95-2.585,3.424c-0.334,1.474-0.344,3.141-0.311,4.738c0.033,1.597,0.113,3.132,0.035,4.184
	c-0.038,0.515-0.126,0.899-0.199,1.071c-0.113,0-0.201-0.007-0.431-0.304c-0.269-0.348-1.237-3.379-1.31-3.827
	c0.033-0.101,0.05-0.207,0.05-0.313c0-0.522-0.41-0.962-0.932-0.997c-0.237-0.045-0.482-0.003-0.69,0.119h-0.002
	c-1.529,0.398-2.787,1.35-3.637,2.616c-0.61-1.347-4.872-11.535-5.002-11.966c-0.06-0.198-0.095-0.346-0.115-0.442
	c1.581-4.442,3.663-6.185,5.283-6.899c1.64-0.722,2.776-0.434,2.776-0.434c0.331,0.077,0.678-0.02,0.921-0.256
	c0,0,3.718-3.595,9.233-6.363c5.514-2.769,12.676-4.653,19.697-1.424c0.001,0,0.001,0,0.002,0c0.568,0.262,1.115,0.102,1.502-0.086
	c0.387-0.188,0.72-0.442,1.063-0.735c0.686-0.586,3.467-3.41,3.929-3.717C295.457,154.611,295.458,154.621,295.526,154.59z
	 M335.371,155.146c1.083,0,1.967,0.89,1.967,2.043c0,0.001,0,0.001,0,0.002c0,0.547,0.451,0.999,0.999,0.999
	c0.105,0,0.209-0.017,0.309-0.049c1.102-0.357,2.225,0.209,2.559,1.233s-0.241,2.138-1.342,2.495
	c-0.411,0.134-0.691,0.518-0.691,0.951c0,0.212,0.068,0.417,0.192,0.588c0.68,0.934,0.488,2.171-0.386,2.806
	c-0.876,0.634-2.117,0.432-2.798-0.501c-0.188-0.258-0.488-0.41-0.808-0.41c-0.319,0-0.619,0.153-0.807,0.41
	c-0.679,0.933-1.924,1.136-2.798,0.501c-0.875-0.634-1.066-1.872-0.387-2.806c0.125-0.171,0.192-0.377,0.192-0.588
	c0-0.432-0.28-0.817-0.691-0.951c-1.1-0.357-1.675-1.471-1.341-2.495c0.334-1.025,1.457-1.589,2.559-1.233
	c0.099,0.032,0.202,0.048,0.307,0.048c0.547,0,0.999-0.45,0.999-0.999v-0.001C333.404,156.036,334.29,155.146,335.371,155.146z
	 M247.58,159.209l-15.567,0.272c-0.008,0-0.017,0-0.025,0c-0.548,0-0.999,0.45-0.999,0.999c0,0.547,0.45,0.999,0.999,0.999
	c0.02,0,0.04-0.001,0.06-0.002l15.567-0.27c0.541-0.009,0.983-0.456,0.983-0.999c0-0.547-0.451-0.999-1-0.999
	C247.592,159.209,247.586,159.209,247.58,159.209z M377.3,164.299c-0.54,0.012-0.978,0.458-0.978,0.999
	c0,0.454,0.311,0.855,0.751,0.968l4.553,1.233c0.093,0.028,0.191,0.043,0.289,0.043c0.547,0,0.999-0.451,0.999-0.999
	c0-0.46-0.318-0.863-0.765-0.972l-4.555-1.232C377.498,164.31,377.4,164.297,377.3,164.299z M393.694,164.299
	c-0.09,0.001-0.179,0.014-0.266,0.039l-4.555,1.232c-0.447,0.109-0.765,0.511-0.765,0.972c0,0.547,0.451,0.999,1,0.999
	c0.097,0,0.195-0.015,0.288-0.043l4.555-1.233c0.44-0.113,0.75-0.513,0.75-0.968c0-0.548-0.45-0.999-0.999-0.999
	C393.7,164.299,393.697,164.299,393.694,164.299z M464.06,164.939c-0.005,0-0.009,0-0.014,0c-0.548,0-0.999,0.45-0.999,0.999
	c0,0.547,0.45,0.999,0.999,0.999c0.005,0,0.009,0,0.014,0h14.061c0.005,0,0.01,0,0.014,0c0.548,0,0.999-0.451,0.999-0.999
	c0-0.548-0.45-0.999-0.999-0.999c-0.004,0-0.009,0-0.014,0H464.06z M317.516,164.946c-1.542,0-2.807,1.055-3.261,2.462
	c-1.48-0.003-2.876,0.867-3.354,2.333c-0.477,1.466,0.14,2.99,1.338,3.857c-0.46,1.405-0.059,2.999,1.191,3.905
	c1.249,0.906,2.891,0.794,4.086-0.078c1.197,0.871,2.838,0.983,4.087,0.078c1.249-0.906,1.651-2.5,1.191-3.905
	c1.199-0.867,1.813-2.391,1.335-3.857c-0.477-1.467-1.872-2.337-3.353-2.333C320.322,166.001,319.059,164.946,317.516,164.946z
	 M317.516,166.944c0.813,0,1.477,0.666,1.477,1.541c0,0.548,0.45,0.999,0.999,0.999c0.105,0,0.209-0.016,0.309-0.048
	c0.837-0.272,1.681,0.156,1.931,0.924c0.25,0.768-0.179,1.606-1.016,1.877c-0.411,0.134-0.691,0.518-0.691,0.95
	c0,0.212,0.067,0.417,0.192,0.587c0.515,0.71,0.371,1.637-0.286,2.113c-0.657,0.475-1.589,0.327-2.106-0.383
	c-0.188-0.259-0.488-0.411-0.808-0.411c-0.319,0-0.619,0.153-0.807,0.411c-0.516,0.709-1.451,0.858-2.107,0.383
	c-0.656-0.476-0.803-1.403-0.287-2.113c0.124-0.17,0.191-0.376,0.191-0.587c0-0.431-0.28-0.816-0.69-0.95
	c-0.836-0.271-1.263-1.109-1.014-1.877c0.251-0.769,1.091-1.196,1.929-0.924c0.1,0.032,0.204,0.048,0.309,0.048
	c0.547,0,0.999-0.45,0.999-0.999C316.038,167.61,316.704,166.944,317.516,166.944z M430.244,171.731
	c-9.452,0-17.134,7.683-17.134,17.134c0,9.451,7.683,17.135,17.134,17.135c9.451,0,17.133-7.685,17.133-17.135
	C447.377,179.414,439.694,171.731,430.244,171.731z M385.272,172.949c-1.512,0.032-3.024,0.477-4.206,1.397
	c-1.182,0.919-1.994,2.383-1.931,4.135c0.004,0.545,0.453,0.992,0.999,0.992c0.547,0,0.999-0.45,0.999-0.999
	c0-0.022-0.001-0.043-0.002-0.065c-0.041-1.137,0.4-1.894,1.163-2.487c0.763-0.594,1.884-0.952,3.019-0.976
	c1.137-0.023,2.263,0.287,3.047,0.866c0.784,0.58,1.276,1.371,1.285,2.64c0,0.002,0,0.004,0,0.006c0,0.547,0.451,0.999,0.999,0.999
	c0.548,0,0.999-0.451,0.999-0.999c0-0.007,0-0.013,0-0.02c-0.014-1.84-0.871-3.325-2.094-4.231
	C388.324,173.301,386.785,172.918,385.272,172.949z M430.244,173.729c8.371,0,15.136,6.765,15.136,15.137
	c0,8.371-6.765,15.138-15.136,15.138c-8.372,0-15.137-6.767-15.137-15.138C415.107,180.494,421.872,173.729,430.244,173.729z
	 M267.101,178.103c0.937-0.079,2.458,0.484,4.202,1.389c1.993,1.034,4.201,2.37,6.492,2.804c6.689,1.263,11.344,0.642,14.775-0.564
	c2.549-0.897,4.421-2.096,5.907-2.996c0.653,3.361,1.46,7.104,2.098,10.55c0.004,0.02,0.005,0.04,0.008,0.06
	c-0.165,0.354-0.109,0.772,0.143,1.07c0.899,8.077-4.608,15.595-12.807,17.115c-2.055,0.382-4.155,0.77-6.21,1.152
	c-8.58,1.59-16.78-3.999-18.355-12.495c-0.089-0.47-0.503-0.815-0.982-0.815c-0.44,0-0.831,0.292-0.958,0.713
	c-2.098-0.063-4.02-1.715-4.467-4.126c-0.43-2.322,0.675-4.464,2.487-5.345c0.112,0.532,1.063,3.364,1.568,4.016
	c0.505,0.652,1.35,1.238,2.335,1.113c0.705-0.09,1.257-0.66,1.496-1.203c0.24-0.541,0.322-1.117,0.369-1.755
	c0.095-1.277,0.003-2.82-0.029-4.372c-0.032-1.552-0.001-3.106,0.26-4.257c0.26-1.151,0.65-1.751,1.301-1.98
	C266.845,178.139,266.967,178.115,267.101,178.103z M300.56,178.962c2.042,0.134,3.886,1.755,4.323,4.11
	c0.427,2.305-0.66,4.43-2.448,5.324C301.842,185.252,301.156,181.978,300.56,178.962z M425.236,181.052
	c-0.547,0.009-0.991,0.465-0.983,1.013v1.895c0,0.004,0,0.009,0,0.014c0,0.547,0.45,0.999,0.999,0.999
	c0.547,0,0.999-0.451,0.999-0.999c0-0.005,0-0.01,0-0.014v-1.895c0-0.004,0-0.009,0-0.014c0-0.547-0.451-0.999-0.999-0.999
	C425.246,181.052,425.241,181.052,425.236,181.052z M435.216,181.052c-0.547,0.009-0.991,0.465-0.983,1.013v1.895
	c0,0.004,0,0.009,0,0.014c0,0.547,0.45,0.999,0.999,0.999c0.547,0,0.999-0.451,0.999-0.999c0-0.005,0-0.01,0-0.014v-1.895
	c0-0.004,0-0.009,0-0.014c0-0.547-0.451-0.999-0.999-0.999C435.227,181.052,435.221,181.052,435.216,181.052z M430.064,191.212
	c-1.96,0.041-3.915,0.624-5.425,1.799c-1.509,1.175-2.535,3.014-2.454,5.254c0.004,0.545,0.453,0.992,0.999,0.992
	c0.548,0,0.999-0.451,0.999-0.999c0-0.022,0-0.044-0.002-0.065c-0.058-1.625,0.595-2.757,1.686-3.606
	c1.091-0.849,2.656-1.344,4.239-1.377s3.159,0.395,4.282,1.226c1.123,0.831,1.844,2.007,1.857,3.8c0,0.001,0,0.002,0,0.004
	c0,0.547,0.451,0.999,1,0.999c0.547,0,0.999-0.451,0.999-0.999c0-0.007,0-0.013-0.001-0.02c-0.017-2.365-1.104-4.234-2.666-5.389
	C434.012,191.673,432.023,191.172,430.064,191.212z M291.723,208.494c0,0-0.271,7.989-0.267,8.027
	c0.182,2.252-0.714,3.913-2.269,5.168c-1.555,1.254-3.808,2.021-6.137,2.14c-2.329,0.119-4.713-0.408-6.537-1.577
	c-1.819-1.166-3.106-2.92-3.422-5.512v-6.748c2.797,0.951,5.869,1.231,8.981,0.653c2.055-0.381,4.157-0.77,6.211-1.151
	C289.484,209.272,290.633,208.933,291.723,208.494z M293.448,217.573l33.323,7.843c0.356,0.351,2.1,2.169,4.083,6.155
	c2.209,4.442,4.543,11.397,4.937,21.417c0.385,9.754-0.11,18.838-0.189,20.253l-24.615-1.221l1.107-20.52
	c0.001-0.018,0.001-0.036,0.001-0.054c0-0.548-0.45-1-0.999-1c-0.528,0-0.97,0.419-0.998,0.946l-1.111,20.589
	c-0.097-0.13-0.187-0.257-0.287-0.387c-2.566-3.342-5.913-6.932-9.777-7.233c-1.032-0.081-2.345,0.118-4.02,0.475
	c-1.676,0.358-3.678,0.891-5.89,1.541c-1.785,0.525-3.725,1.141-5.715,1.789c-0.108-0.291-0.346-0.515-0.642-0.606
	c-3.071-0.977-5.916-1.811-8.275-2.386c-2.359-0.575-4.17-0.917-5.487-0.813c-3.889,0.304-7.236,4.027-9.814,7.493
	c-0.083,0.111-0.157,0.22-0.239,0.332l-1.122-20.794c-0.028-0.527-0.469-0.945-0.998-0.945c-0.548,0-0.999,0.45-0.999,0.999
	c0,0.018,0,0.036,0.001,0.054l1.107,20.52l-24.615,1.221c-0.079-1.414-0.573-10.498-0.189-20.253
	c0.395-10.023,2.672-16.797,4.822-21.053c1.587-3.142,3.05-4.858,3.715-5.55c0.046-0.006,30.675-8.654,30.675-8.654
	c0.546,2.778,2.132,4.88,4.197,6.203c2.252,1.444,5.028,2.029,7.719,1.891c2.692-0.138,5.321-0.993,7.288-2.581
	C292.128,221.884,293.292,219.923,293.448,217.573z M269.05,266.352c0.75-0.059,2.574,0.204,4.859,0.761
	c1.924,0.468,4.268,1.155,6.762,1.929c-2.123,0.713-4.277,1.448-6.404,2.2c-8.091,2.863-13.965,5.13-16.428,6.087
	c0.72-1.203,1.684-2.725,2.845-4.284C263.147,269.734,266.461,266.555,269.05,266.352z M298.768,266.352
	c2.614,0.204,5.9,3.27,8.347,6.457c1.89,2.46,2.625,3.903,3.176,4.884l-12.715,0.178c-0.153,0.002-0.304,0.04-0.439,0.109
	c0,0-10.372,5.269-22.239,10.396c-5.933,2.563-12.238,5.091-17.78,6.9c-5.543,1.809-10.386,2.861-13.055,2.616
	c-0.063-0.006-0.122-0.02-0.185-0.027c-0.089-0.029-0.181-0.044-0.274-0.047c-0.012,0-0.024,0-0.037,0
	c-2.214-0.342-3.947-1.546-5.393-3.354c-1.553-1.942-2.719-4.564-3.553-7.291c-1.456-4.763-1.896-9.653-2.033-11.951l21.332-1.06
	l0.294,5.285c0.03,0.526,0.471,0.943,0.998,0.943c0.125,0,0.249-0.023,0.365-0.069c0,0,9.276-3.631,19.356-7.196
	c5.04-1.783,10.28-3.549,14.644-4.832c2.181-0.641,4.146-1.162,5.743-1.502C296.915,266.45,298.18,266.306,298.768,266.352z
	 M257.588,273.982c-0.598,0.899-1.117,1.732-1.543,2.448l-0.132-2.366L257.588,273.982z M310.424,273.991l1.48,0.074l-0.115,2.051
	C311.409,275.494,310.95,274.771,310.424,273.991z M313.897,274.162l21.332,1.06c-0.137,2.293-0.574,7.173-2.028,11.933
	c-0.833,2.731-1.998,5.355-3.552,7.302c-1.344,1.683-2.934,2.853-4.932,3.285c-0.014-0.002-0.028-0.003-0.043-0.004
	c-0.145-0.005-0.29,0.023-0.423,0.08c-0.166,0.025-0.327,0.058-0.498,0.074c-3.335,0.306-10.019-1.44-17.336-4.097
	c-6.664-2.419-13.89-5.534-20.126-8.369c6.54-3.051,11.32-5.451,11.536-5.561l14.799-0.111c0.532,0.008,0.982-0.411,1.013-0.943
	L313.897,274.162z M283.913,286.542c6.578,3.019,14.527,6.48,21.823,9.129c7.212,2.619,13.661,4.489,17.861,4.23l-2.085,48.287
	c-28.136,7.563-54.116,5.907-78.901-1.247l1.922-47.036c3.316,0.12,7.912-1.004,13.205-2.732c5.639-1.841,11.986-4.386,17.952-6.964
	C278.573,288.963,281.351,287.718,283.913,286.542z M242.555,348.998c24.718,7.057,50.746,8.693,78.807,1.287l-9.906,126.337
	c-9.115,2.851-18.004,3.834-26.671,0.851l-0.09-102.977c0-0.544-0.446-0.994-0.991-0.999l-6.59-0.043
	c-0.534-0.003-0.983,0.423-1.005,0.958l-4.286,101.936c-10.81,4.944-20.226,4.099-29.049-0.443L242.555,348.998z M138.261,395.079
	c-0.39,0.018-0.734,0.263-0.88,0.624c0,0-7.524,18.35-0.538,34.173c3.431,7.772,7.983,14.179,12.663,18.307
	c2.339,2.063,4.713,3.563,7.035,4.35c0.566,0.192,1.132,0.339,1.692,0.44h-44.166c-0.005,0-0.009,0-0.014,0
	c-0.548,0-0.999,0.451-0.999,0.999c0,0.548,0.45,1,0.999,1c0.005,0,0.009,0,0.014-0.001h83.124c0.004,0.001,0.009,0.001,0.014,0.001
	c0.547,0,0.999-0.451,0.999-1c0-0.547-0.451-0.999-0.999-0.999c-0.005,0-0.01,0-0.014,0h-29.595c2.207-0.857,4.445-2.351,6.64-4.37
	c4.594-4.221,9.016-10.722,12.288-18.561c6.662-15.963-1.234-34.157-1.234-34.157c-0.162-0.378-0.541-0.618-0.952-0.604
	c-0.114,0.003-0.227,0.027-0.332,0.068c0,0-14.285,5.572-22.274,17.767c-8.138-12.51-23.08-17.976-23.08-17.976
	C138.527,395.094,138.394,395.073,138.261,395.079z M138.904,397.433c2.505,1.019,17.532,7.543,23.537,21.142
	c3.33,7.543,4.92,15.002,4.824,20.854c-0.048,2.926-0.519,5.445-1.358,7.36c-0.838,1.915-2.008,3.205-3.505,3.866
	c-0.101,0.045-0.206,0.079-0.309,0.117l-15.364-37.965c-0.149-0.384-0.519-0.638-0.93-0.638c-0.001,0-0.001,0-0.001,0
	c-0.547,0-0.999,0.45-0.999,0.999c0,0.134,0.027,0.266,0.079,0.389l15.21,37.586c-0.904,0.012-1.872-0.152-2.906-0.501
	c-1.98-0.671-4.159-2.019-6.353-3.954c-4.39-3.872-8.827-10.073-12.157-17.616C132.667,415.47,137.969,399.97,138.904,397.433z
	 M183.799,397.64c0.982,2.502,6.612,17.905,0.882,31.634c-3.175,7.609-7.487,13.899-11.796,17.859
	c-2.155,1.98-4.309,3.372-6.273,4.083c-0.726,0.263-1.421,0.43-2.085,0.51c1.38-0.978,2.454-2.408,3.21-4.137
	c0.984-2.247,1.474-5.01,1.526-8.129c0.041-2.522-0.221-5.287-0.757-8.191c0.158-0.099,0.285-0.241,0.367-0.408l12.389-25.247
	c0.072-0.14,0.109-0.296,0.109-0.452c0-0.533-0.426-0.978-0.959-0.999c-0.401-0.016-0.773,0.21-0.944,0.572l-11.59,23.615
	c-0.831-3.421-2.023-6.988-3.609-10.581c-0.416-0.943-0.879-1.853-1.371-2.733C169.567,404.168,181.452,398.654,183.799,397.64z
	 M362.187,406.379c-0.381,0.022-0.717,0.261-0.864,0.612c0,0-6.447,15.077-0.454,28.123c0.899,1.957,1.893,3.801,2.949,5.526
	c-0.323,0.391-0.634,0.799-0.935,1.219c-4.81-6.791-13.05-9.697-13.05-9.697c-0.094-0.035-0.193-0.054-0.293-0.059
	c-0.421-0.02-0.811,0.228-0.972,0.616c0,0-4.396,10.381-0.301,19.453c1.984,4.394,4.612,8.021,7.349,10.381
	c2.118,1.828,4.386,2.961,6.484,2.872c2.567,1.039,5.521-0.233,8.203-2.643c2.445-2.198,4.772-5.449,6.597-9.356
	c1.464,0.589,2.924,0.873,4.314,0.782l-0.022,0.053c3.562,1.428,7.782-0.298,11.715-3.771c3.932-3.474,7.709-8.811,10.502-15.248
	c5.715-13.161-1.051-28.108-1.051-28.108c-0.168-0.376-0.549-0.61-0.96-0.591c-0.105,0.005-0.209,0.027-0.307,0.065
	c0,0-12.05,4.501-18.912,14.426c-6.991-10.186-19.601-14.597-19.601-14.597c-0.095-0.034-0.193-0.054-0.293-0.059
	C362.253,406.377,362.22,406.377,362.187,406.379z M362.836,408.715c2.397,0.953,14.822,6.277,19.818,17.155
	c2.824,6.147,4.168,12.223,4.087,16.967c-0.081,4.713-1.539,7.917-3.991,8.991l-3.605-7.873c-0.038-0.084-0.086-0.162-0.145-0.232
	c-0.087-6.028-2.272-10.907-2.272-10.907c-0.165-0.377-0.545-0.615-0.956-0.599c-0.109,0.005-0.217,0.027-0.319,0.067
	c0,0-0.573,0.228-1.375,0.604l-7.633-16.671c-0.166-0.377-0.547-0.613-0.958-0.595c-0.531,0.024-0.955,0.466-0.955,0.998
	c0,0.148,0.033,0.295,0.096,0.428l7.671,16.753c-2.018,1.113-4.69,2.863-7.083,5.299c-0.901-1.513-1.754-3.121-2.534-4.818
	C357.699,423.433,361.938,411.103,362.836,408.715z M400.882,408.886c0.946,2.36,5.45,14.614,0.696,25.563
	c-2.692,6.201-6.349,11.325-9.993,14.544c-2.223,1.964-4.391,3.164-6.313,3.584c2.302-1.985,3.395-5.526,3.467-9.707
	c0.028-1.616-0.113-3.356-0.385-5.168c0.284-0.087,0.514-0.297,0.628-0.571l10.224-22.69c0.063-0.132,0.095-0.277,0.095-0.422
	c0-0.545-0.445-0.994-0.99-0.999c-0.401-0.004-0.766,0.235-0.925,0.602l-9.562,21.218c-0.708-3.145-1.821-6.462-3.355-9.804
	c-0.341-0.74-0.715-1.452-1.115-2.144C388.909,414.282,398.656,409.825,400.882,408.886z M350.089,434.452
	c2.187,0.934,9.695,4.516,12.807,11.407c1.88,4.164,2.769,8.279,2.716,11.459c-0.027,1.59-0.293,2.942-0.738,3.937
	c-0.295,0.658-0.659,1.14-1.084,1.492l-8.121-18.187c-0.163-0.378-0.543-0.618-0.954-0.603c-0.534,0.02-0.963,0.464-0.963,0.999
	c0,0.145,0.031,0.288,0.092,0.419l8.059,18.044c-1.382,0.002-3.12-0.773-4.98-2.377c-2.445-2.109-4.955-5.526-6.834-9.69
	C346.986,444.481,349.312,436.685,350.089,434.452z M375.265,434.632c0.847,2.31,3.262,9.98,0.334,16.843
	c-1.793,4.2-4.231,7.668-6.631,9.824c-1.052,0.946-2.065,1.6-3.004,2.004c0.279-0.38,0.533-0.784,0.734-1.233
	c0.595-1.33,0.881-2.931,0.911-4.719c0.029-1.744-0.191-3.674-0.65-5.7c0.028-0.033,0.053-0.068,0.077-0.105l6.745-10.852
	c0.104-0.162,0.159-0.349,0.159-0.54c0-0.548-0.45-0.999-0.999-0.999c-0.02,0-0.039,0-0.059,0.002
	c-0.329,0.019-0.626,0.2-0.796,0.481l-5.844,9.401c-0.417-1.316-0.918-2.655-1.526-4.001c-0.206-0.455-0.439-0.887-0.676-1.316
	C367.755,437.959,373.953,435.192,375.265,434.632z M378.698,447.778l2.043,4.462c-0.937,0.007-1.962-0.212-3.058-0.651
	C378.163,450.323,378.493,449.047,378.698,447.778z M207.479,452.973c-0.004,0-0.009,0-0.014,0c-0.547,0-0.999,0.451-0.999,0.999
	c0,0.548,0.451,1,0.999,1c0.005,0,0.01,0,0.014-0.001h25.63c0.004,0.001,0.009,0.001,0.014,0.001c0.547,0,0.999-0.451,0.999-1
	c0-0.547-0.451-0.999-0.999-0.999c-0.005,0-0.01,0-0.014,0H207.479z M325.686,452.973c-0.005,0-0.009,0-0.014,0
	c-0.548,0-0.999,0.451-0.999,0.999c0,0.548,0.45,1,0.999,1c0.005,0,0.009,0,0.014-0.001h18.111c0.005,0.001,0.009,0.001,0.014,0.001
	c0.548,0,0.999-0.451,0.999-1c0-0.547-0.45-0.999-0.999-0.999c-0.005,0-0.009,0-0.014,0H325.686z M393.96,452.973
	c-0.005,0-0.01,0-0.015,0c-0.547,0-0.999,0.451-0.999,0.999c0,0.548,0.451,1,0.999,1c0.005,0,0.01,0,0.015-0.001h56.131
	c0.004,0.001,0.009,0.001,0.014,0.001c0.548,0,0.999-0.451,0.999-1c0-0.547-0.45-0.999-0.999-0.999c-0.005,0-0.01,0-0.014,0H393.96z
	 M244.027,478.712c8.105,3.582,16.934,4.201,26.56,0.387c0.017,1.43,0.07,9.64-0.975,14.593c-0.487,2.304-0.762,4.206-1.105,5.876
	c-5.849,4.129-11.547,6.013-17.229,5.909c-5.703-0.105-11.44-2.22-17.303-6.219c0.45-1.559,1.308-3.24,2.384-4.9
	c1.226-1.893,2.687-3.749,3.975-5.405s2.403-3.069,2.984-4.321C244.4,482.305,244.345,480.215,244.027,478.712z M311.235,478.769
	c-0.308,1.498-0.348,3.567,0.72,5.862c0.582,1.251,1.696,2.665,2.984,4.321c1.289,1.656,2.75,3.513,3.976,5.405
	c1.135,1.753,2.036,3.531,2.46,5.162c-5.724,3.823-11.33,5.855-16.904,5.958c-5.822,0.107-11.656-1.856-17.657-6.199
	c-0.041-0.031-0.084-0.058-0.129-0.082c-0.308-1.582-0.573-3.372-1.024-5.503c-0.956-4.527-0.991-11.732-0.978-14.088
	C293.435,482.449,302.351,481.447,311.235,478.769z M233.615,501.41c5.845,3.833,11.715,5.956,17.628,6.065
	c5.482,0.101,10.964-1.524,16.427-4.939c-0.013,0.031-0.023,0.066-0.037,0.097c-0.974,2.277-2.693,4.201-6.951,6.473
	c-4.101,2.188-9.45,2.581-14.364,1.613c-4.914-0.969-9.357-3.31-11.66-6.244C233.914,503.525,233.61,502.519,233.615,501.41z
	 M321.656,501.723c-0.05,0.987-0.368,1.892-1.042,2.751c-2.303,2.934-6.746,5.276-11.66,6.244
	c-4.914,0.968-10.263,0.575-14.364-1.613c-4.257-2.272-5.977-4.196-6.951-6.473c-0.072-0.169-0.133-0.346-0.197-0.52
	c5.674,3.693,11.369,5.467,17.065,5.363C310.26,507.368,315.97,505.36,321.656,501.723z"></path>
</svg>